<?xml version="1.0" encoding="UTF-8" standalone="no"?>
<!-- Created with Inkscape (http://www.inkscape.org/) -->

<svg
   version="1.1"
   id="svg1"
   width="2800"
   height="2800"
   viewBox="0 0 2800 2800"
   sodipodi:docname="logo-color.svg"
   inkscape:export-filename="../Pictures/Mariage/logo.png"
   inkscape:export-xdpi="96"
   inkscape:export-ydpi="96"
   inkscape:version="1.3.2 (091e20ef0f, 2023-11-25, custom)"
   xmlns:inkscape="http://www.inkscape.org/namespaces/inkscape"
   xmlns:sodipodi="http://sodipodi.sourceforge.net/DTD/sodipodi-0.dtd"
   xmlns="http://www.w3.org/2000/svg"
   xmlns:svg="http://www.w3.org/2000/svg">
  <defs
     id="defs1" />
  <sodipodi:namedview
     id="namedview1"
     pagecolor="#ffffff"
     bordercolor="#000000"
     borderopacity="0.25"
     inkscape:showpageshadow="2"
     inkscape:pageopacity="0.0"
     inkscape:pagecheckerboard="0"
     inkscape:deskcolor="#d1d1d1"
     inkscape:zoom="0.27035714"
     inkscape:cx="1117.041"
     inkscape:cy="1535.0066"
     inkscape:window-width="1910"
     inkscape:window-height="980"
     inkscape:window-x="0"
     inkscape:window-y="0"
     inkscape:window-maximized="0"
     inkscape:current-layer="g1" />
  <g
     inkscape:groupmode="layer"
     inkscape:label="Image"
     id="g1">
    <path
       style="display:inline;fill:#ffe0b5;fill-opacity:1;stroke:none;stroke-opacity:1"
       d="m 459.67378,608.19276 c 1.79301,-74.74989 -20.70654,-104.90679 54.66146,-130.16738 75.368,-25.26059 224.68388,32.60378 280.26995,-34.40958 55.58607,-67.01335 -16.61775,-164.51535 84.17472,-160.90919 103.64377,3.70817 130.20939,-59.01829 199.37859,-25.78291 30.9213,14.85751 205.7538,286.30925 205.7538,286.30925 l 86.6165,125.27107 83.3012,58.38287 194.3865,-269.33562 c 0,0 81.2221,-176.16005 99.5558,-183.78164 18.3337,-7.6216 50.1534,-18.40524 93.0274,-12.52558 42.8741,5.87966 105.704,42.08796 140.5547,108.01602 31.8567,60.26435 79.1844,92.36253 139.5901,89.02169 60.4058,-3.34083 142.6981,-35.23456 192.8157,-16.73738 50.1176,18.49719 109.6269,117.63671 109.7188,141.65087 0.092,24.01416 -185.8913,233.20965 -185.8913,233.20965 l -128.8469,133.87346 -116.1221,189.71244 -59.4914,130.507 22.5787,194.9638 -43.3184,160.8096 66.643,167.9714 1.2055,99.4945 -61.4325,100.3374 -8.8067,86.2641 -25.608,55.4098 -121.5062,117.767 -19.4422,85.227 -83.9398,136.0803 -31.1045,64.758 -28.7955,108.7814 -64.8194,-0.3575 c 0,0 -65.0083,-55.9003 -71.9454,-85.6255 -6.9371,-29.7253 -2.1148,-185.6666 -2.1148,-185.6666 0,0 -63.6853,78.9285 -87.9855,81.2629 -24.3003,2.3345 -73.0233,-5.333 -80.4661,-19.9939 -7.4428,-14.6608 -42.0619,-88.8999 -42.0619,-88.8999 0,0 -23.2377,40.0032 -50.894,47.9926 -27.6564,7.9894 -78.7191,-10.1298 -86.1261,-31.8299 -7.4071,-21.7001 -22.589,-62.4593 -22.589,-62.4593 0,0 -64.0275,4.715 -75.414,-18.0323 -11.3864,-22.7473 -33.1631,-97.6709 -33.1631,-111.4633 0,-13.7925 -2.50307,-38.1336 -2.50307,-38.1336 l -66.41824,-20.566 -79.4853,64.9062 c 0,0 -48.37569,13.8792 -60.15545,12.5715 -11.77976,-1.3077 -45.35157,-16.6684 -41.29046,-67.0414 4.0611,-50.3731 39.13476,-189.9117 39.13476,-189.9117 l 4.4289,-156.9017 -33.88342,-31.4927 c 0,0 -51.5786,-154.6898 -37.3162,-193.5334 14.2624,-38.8436 70.33121,-116.4644 86.40195,-126.2774 16.07074,-9.8131 102.98862,-96.45 122.01708,-106.4776 19.02845,-10.0276 44.57,-25.4854 44.57,-25.4854 L 979.77885,1079.8506 842.66161,934.33022 709.8047,786.78181 522.08455,641.83353 Z"
       id="path5"
       inkscape:label="bg"
       sodipodi:insensitive="true"
       sodipodi:nodetypes="cssssccccsssssscccccccccccccccccscsscsscsscccsscccssscccccc" />
    <g
       id="g12"
       inkscape:label="nails"
       sodipodi:insensitive="true"
       style="display:inline">
      <path
         style="fill:#fff2d7;fill-opacity:1;stroke:none;stroke-opacity:1"
         d="m 750.05307,1672.7363 c 5.19515,78.1725 -0.16858,109.8849 19.856,101.257 20.02457,-8.628 67.18448,-29.9858 68.81914,-49.0041 1.63466,-19.0182 -10.06848,-89.707 -27.45205,-82.6779 -17.38358,7.029 -54.41371,-2.9884 -57.8465,12.7861 -3.43278,15.7744 -3.37659,17.6389 -3.37659,17.6389 z"
         id="path6"
         inkscape:label="nail1" />
      <path
         style="fill:#fff2d7;fill-opacity:1;stroke:none;stroke-opacity:1"
         d="m 1625.3976,2534.9372 -16.4232,101.6401 -31.5285,18.4205 -30.2207,-17.7105 -17.2099,-85.3854 z"
         id="path12" />
      <path
         style="fill:#fff2d7;fill-opacity:1;stroke:none;stroke-opacity:1"
         d="m 1348.2054,2059.9309 -6.6305,55.9206 68.8906,2.4929 c 0,0 14.0581,-34.1848 5.1798,-51.3232 -8.8782,-17.1384 -49.6527,-47.2825 -49.6527,-47.2825 z"
         id="path11" />
      <path
         style="fill:#fff2d7;fill-opacity:1;stroke:none;stroke-opacity:1"
         d="m 736.55181,2104.9759 c 2.35493,49.8674 -9.80285,61.9025 6.40582,71.7514 16.20866,9.8488 45.64785,11.3864 49.34627,-4.5005 3.69841,-15.8868 10.26259,-99.0654 10.26259,-99.0654 l -50.65911,-18.9263 z"
         id="path7" />
      <path
         style="fill:#fff2d7;fill-opacity:1;stroke:none;stroke-opacity:1"
         d="m 1100.8202,1600.2035 -72.9619,26.1852 -6.9984,26.8288 37.8372,42.1282 z"
         id="path8" />
      <path
         style="fill:#fff2d7;fill-opacity:1;stroke:none;stroke-opacity:1"
         d="m 1145.7529,1724.0646 c 0,0 51.2721,22.3285 60.8502,8.6995 9.5781,-13.629 24.4484,-65.4528 4.5464,-86.8055 -19.902,-21.3527 -42.5062,-49.2032 -54.9909,-35.324 -12.4848,13.8793 -46.9045,51.8953 -40.984,72.1089 5.9205,20.2136 30.5783,41.3211 30.5783,41.3211 z"
         id="path9" />
      <path
         style="fill:#fff2d7;fill-opacity:1;stroke:none;stroke-opacity:1"
         d="m 1245.8809,1868.2875 c 0,0 42.8587,22.7422 61.7033,18.2929 18.8445,-4.4493 40.8409,-10.7019 38.2459,-32.2283 -2.595,-21.5264 -4.7354,-64.7479 -21.0054,-80.8186 -16.2699,-16.0707 -41.9801,-18.5891 -50.7868,-8.0916 -8.8067,10.4976 -40.0134,53.3563 -37.6125,67.8435 2.4009,14.4872 9.4555,35.0021 9.4555,35.0021 z"
         id="path10" />
    </g>
    <g
       id="g305"
       inkscape:label="text"
       style="display:inline">
      <path
         id="path267"
         style="display:inline;fill:#000000"
         d="m 1214.7689,560.57942 c -6.9172,-7.87833 -7.5366,-10.95103 -3.1495,-15.62461 4.1179,-4.38676 18.1405,-11.61879 22.5315,-11.62042 3.5804,-10e-4 15.527,12.5582 14.924,15.6896 -0.8404,4.36352 -5.1232,3.39958 -9.95,-2.23943 -7.2416,-8.46016 -11.2631,-6.97101 -5.6596,2.09571 2.2505,3.64126 2.4797,4.91278 1.1701,6.49071 -2.6168,3.15311 -4.8792,2.30378 -8.0915,-3.03765 -1.6539,-2.75 -3.1514,-5.19861 -3.3279,-5.44136 -0.5953,-0.8187 -5.8827,2.52422 -5.8827,3.71931 0,0.65126 1.5458,3.02112 3.435,5.26634 6.8762,8.17186 1.0538,12.73493 -5.9994,4.7018 z m -19.2693,-20.3957 c -4.096,-4.52607 -5.0688,-10.83216 -2.4826,-16.09363 2.7645,-5.6243 12.5298,-12.01645 19.8487,-12.99257 6.0505,-0.80695 11.7606,2.83014 12.7751,8.13716 1.184,6.19379 -4.6381,8.42473 -7.2167,2.76532 -1.9334,-4.24331 -5.3057,-4.24214 -12.5518,0.004 -6.8378,4.00718 -8.1717,7.28207 -5.0907,12.49775 3.8913,6.58746 -0.3416,11.14064 -5.282,5.68161 z m -21.4741,-22.34867 c -2.7029,-2.70294 -1.7357,-8.23251 2.8281,-16.16838 3.7487,-6.51852 3.1755,-6.8332 -4.1869,-2.29856 -6.0258,3.71136 -9.3801,4.17055 -10.4325,1.42816 -0.9591,-2.4994 1.3301,-5.08794 7.7658,-8.78134 2.9333,-1.68343 9.0773,-5.44198 13.6532,-8.35234 8.0339,-5.10973 12.3468,-5.78404 12.3468,-1.93041 0,2.21875 -4.6248,11.19736 -10.6188,20.61529 -2.4552,3.85777 -4.1611,7.31711 -3.7908,7.68741 0.3703,0.3703 4.814,-2.35306 9.8748,-6.05192 9.2122,-6.73301 14.125,-7.99209 14.9188,-3.82349 0.6873,3.6091 -22.966,19.84053 -28.9126,19.84053 -0.7045,0 -2.2552,-0.97423 -3.4459,-2.16495 z m -27.3271,-36.4523 c -2.3355,-3.63949 -4.0425,-7.67539 -3.7935,-8.96868 0.5871,-3.04812 23.3271,-16.37447 27.9798,-16.39693 2.6385,-0.0127 4.609,1.42113 7.6666,5.57886 4.5626,6.20409 5.2283,10.06062 1.9537,11.3172 -1.4646,0.56203 -3.5068,-0.77024 -6.3333,-4.13162 -3.0057,-3.57441 -4.8239,-4.70981 -6.505,-4.06203 -2.9424,1.13375 -2.9246,1.37187 0.4576,6.12162 2.241,3.14727 2.4715,4.30427 1.17,5.87249 -2.4637,2.96861 -4.8212,2.36244 -7.961,-2.04699 -3.2194,-4.52128 -3.69,-4.65489 -7.1542,-2.03117 -2.4136,1.82801 -2.3998,2.02594 0.463,6.6581 3.2591,5.27336 2.8144,8.7064 -1.1279,8.7064 -1.6216,0 -4.1361,-2.44122 -6.8158,-6.61725 z m -13.8095,-19.60497 c -2.6429,-2.64285 0.134,-5.97432 11.2768,-13.5293 12.6486,-8.57583 15.711,-9.61014 18.501,-6.24848 1.3242,1.59562 1.3242,2.40438 0,4 -0.913,1.1 -2.3364,2.01161 -3.1633,2.0258 -0.8269,0.0142 -6.2633,3.31418 -12.081,7.33333 -10.3628,7.1591 -12.7422,8.20996 -14.5335,6.41865 z m -20.4763,-22.62568 c -0.4603,-1.19967 -0.2272,-3.14967 0.5181,-4.33333 1.0954,-1.73953 18.3829,-11.89445 23.736,-13.94277 0.7333,-0.28061 -0.071,-2.03897 -1.7874,-3.90748 -3.6559,-3.97994 -3.3822,-8.30185 0.5256,-8.30185 3.3289,0 22.1977,20.284 21.6267,23.24873 -0.7135,3.70481 -5.1694,3.14085 -9.673,-1.22428 l -4.3595,-4.22538 -9.8329,4.93447 c -5.4081,2.71396 -11.4255,6.05917 -13.372,7.4338 -4.3514,3.0729 -6.2924,3.15654 -7.3816,0.31809 z m -13.2695,-13.16703 c -0.4575,-1.19213 1.2697,-4.50797 4.2295,-8.12005 l 5.0027,-6.10512 -4.0144,-4.01435 -4.0143,-4.01435 -7.6151,1.70419 c -6.4639,1.44655 -7.7971,1.41647 -8.8183,-0.19893 -2.6542,-4.19834 -1.7093,-4.7503 19.1714,-11.19923 16.4878,-5.09219 21.734,-5.49522 24.0183,-1.84515 1.9334,3.0892 -4.3811,14.86123 -14.2428,26.5528 -7.715,9.14644 -12.0978,11.4598 -13.717,7.24019 z m 16.6429,-24.04781 c 2.0961,-4.60047 2.1587,-4.54195 -3.1226,-2.92108 -4.4218,1.3571 -4.5525,1.56301 -2.46,3.8752 2.9215,3.22827 3.7408,3.08825 5.5826,-0.95412 z m -41.5638,-17.49282 c -2.8632,-2.86325 -0.1832,-5.92804 10.3577,-11.84473 11.1522,-6.25978 11.2225,-6.33228 8.3766,-8.63676 -2.4537,-1.98683 -2.6108,-2.63629 -1.0833,-4.4768 2.0675,-2.49119 10.0768,-2.86378 15.7067,-0.73067 10.2876,3.89786 13.019,13.54766 6.0443,21.35372 -3.2617,3.65041 -4.5392,4.14485 -10.5885,4.09799 -3.7836,-0.0293 -9.2171,-0.7537 -12.0743,-1.60976 -4.3214,-1.29472 -5.893,-1.19555 -9.3454,0.58971 -4.5434,2.3495 -6.0461,2.60502 -7.3938,1.2573 z m 34.6661,-11.03666 c 2.4955,-5.03321 1.0321,-5.45023 -6.4535,-1.83907 -5.2354,2.52563 -6.4363,3.62135 -4.9967,4.55872 3.4726,2.26095 9.716,0.77799 11.4502,-2.71965 z"
         inkscape:label="patience" />
      <path
         id="path250"
         style="display:inline;fill:#000000"
         d="m 2253.9352,722.97958 c -0.7689,-0.53877 -5.1189,-5.01445 -9.6666,-9.94595 -7.7332,-8.38581 -8.2683,-9.37861 -8.2636,-15.33333 0.012,-15.65382 14.2742,-22.21259 21.9865,-10.11111 2.4686,3.87344 3.1063,4.14123 8.2582,3.46777 5.2315,-0.68388 5.7558,-0.44634 8.3283,3.77327 3.2739,5.37004 3.5364,11.46128 0.6703,15.55319 -1.9822,2.82997 -17.0951,13.63931 -19.0093,13.59616 -0.4981,-0.0112 -1.5348,-0.46123 -2.3038,-1 z m 11.7315,-13.92608 c 3.665,-2.5673 5.0104,-8.06562 2.3725,-9.69597 -1.5921,-0.98395 -9.6442,2.99648 -11.1055,5.48978 -1.3361,2.27985 -7.1764,2.3918 -7.9656,0.15269 -0.3232,-0.91667 0.6534,-3.85271 2.1701,-6.52455 2.3692,-4.17382 2.4997,-5.16859 0.9263,-7.06434 -2.7847,-3.35547 -7.0483,-2.05046 -8.2662,2.53017 -0.7428,2.79362 -0.4777,4.57132 0.9102,6.10498 1.077,1.19005 1.9582,2.69117 1.9582,3.33584 0,0.64467 2.1935,3.41849 4.8744,6.16405 5.2754,5.4025 5.7324,5.38656 14.1256,-0.49265 z m 12.1847,-22.25987 c -7.5225,-4.5871 -13.3597,-15.64287 -11.7162,-22.19096 0.9891,-3.94107 12.4805,-11.26934 17.6713,-11.26934 4.6446,0 12.469,6.08688 15.5949,12.13172 7.532,14.56524 -7.7833,29.72323 -21.55,21.32858 z m 12.9029,-6.84054 c 3.8468,-2.05876 3.4033,-9.43555 -0.8728,-14.51746 -3.7646,-4.47392 -7.2906,-5.2241 -9.8815,-2.1023 -0.9129,1.1 -2.451,2 -3.4179,2 -2.9546,0 -3.4248,2.3311 -1.432,7.10039 3.1591,7.5608 9.667,10.69685 15.6042,7.51937 z m 10.579,-27.28642 c -6.2009,-6.23334 -11.9972,-11.33334 -12.8807,-11.33334 -1.7927,0 -3.6787,-4.68276 -2.5933,-6.43897 0.3839,-0.62122 8.6726,-0.88489 18.4194,-0.58592 l 17.7213,0.54359 -6.0501,-5.75935 c -3.3276,-3.16764 -8.5761,-7.96412 -11.6634,-10.65884 -3.7414,-3.26569 -5.3445,-5.59994 -4.8072,-7 1.4613,-3.80821 5.6167,-2.20614 15.4657,5.96268 10.4129,8.6365 15.7217,15.0412 15.7217,18.96722 0,3.68883 -7.8451,6.30293 -18.9155,6.30293 h -9.6677 l 7.6249,7.70533 c 7.769,7.85092 9.2844,11.37258 5.5159,12.81868 -1.16,0.44513 -2.2232,0.80932 -2.3628,0.80932 -0.1395,0 -5.3272,-5.1 -11.5282,-11.33333 z m 36.1349,-33.9532 c -11.016,-12.39495 -12.9525,-13.40399 -16.7014,-8.70238 -3.1924,4.0036 -7.7743,4.15787 -8.5198,0.28686 -0.7493,-3.89088 12.2335,-18.60854 19.0863,-21.6367 2.7957,-1.23536 4.5018,-1.35113 5.6667,-0.38448 2.8057,2.32833 1.8822,4.70586 -3,7.72323 -2.5667,1.58629 -4.6612,2.98522 -4.6545,3.10875 0.01,0.12352 5.1362,5.54953 11.399,12.05779 11.368,11.81359 13.2424,15.7815 7.8229,16.5604 -1.9664,0.28261 -5.0964,-2.25923 -11.0992,-9.01347 z m 19.1805,-12.85885 c -1.7732,-1.9133 -5.0851,-6.37905 -7.3598,-9.92389 -4.8152,-7.50388 -5.0497,-14.32017 -0.5698,-16.56699 1.4955,-0.75006 5.5388,-3.68051 8.9851,-6.51212 6.3882,-5.24882 10.3108,-5.71698 10.279,-1.2268 -0.01,1.30635 -3.3093,5.26271 -7.3334,8.79192 -7.6147,6.67829 -8.6238,8.49863 -5.3974,9.73671 1.1276,0.4327 3.5691,-1.09675 5.9199,-3.70852 3.7927,-4.21381 4.122,-4.32541 6.3319,-2.14634 2.2168,2.18588 2.1148,2.59977 -2.0796,8.44032 -3.3435,4.65576 -4.0368,6.51557 -2.8655,7.68687 1.1713,1.17131 3.2634,0.61567 8.647,-2.29653 7.3154,-3.9572 10.1272,-3.81331 10.1272,0.51825 0,3.07568 -12.7426,10.68583 -17.8926,10.68583 -2.133,0 -4.8647,-1.39913 -6.792,-3.47871 z m -19.8127,-38.5609 c -0.8752,-2.28061 2.6066,-12.27006 5.2906,-15.17918 1.4375,-1.5581 2.1037,-1.58329 3.8366,-0.14509 1.1533,0.9572 1.8192,2.70566 1.4796,3.88546 -0.3396,1.1798 -1.2763,4.69509 -2.0815,7.81176 -1.2008,4.64759 -2.0286,5.66666 -4.6034,5.66666 -1.7266,0 -3.4915,-0.91782 -3.9219,-2.03961 z"
         inkscape:label="bonte2" />
      <path
         id="path237"
         style="display:inline;fill:#000000"
         d="m 776.85566,814.70028 c -2.63339,-2.91484 -5.19949,-6.93928 -5.70244,-8.94319 -0.80313,-3.19996 -0.0603,-4.40855 6.10258,-9.92836 8.00966,-7.17395 13.36197,-9.80126 17.71832,-8.69745 4.15496,1.05278 13.23311,10.13582 12.73662,12.74348 -0.70761,3.71641 -5.54702,3.13789 -9.65963,-1.15475 -3.56751,-3.72367 -7.38444,-5.34633 -7.38444,-3.13928 0,0.50274 1.2759,2.27221 2.83535,3.93216 5.8698,6.24812 -0.58092,9.81257 -6.86413,3.79287 -3.45409,-3.30923 -3.54389,-3.32126 -5.84112,-0.78285 -2.24408,2.47967 -2.14557,2.78562 2.58144,8.01786 5.1145,5.66113 5.44326,9.45923 0.81879,9.45923 -1.40435,0 -4.70796,-2.38487 -7.34134,-5.29972 z m -22.56417,-20.2931 C 749.45243,787.92534 748,784.6432 748,780.18996 c 0,-5.11373 5.39221,-11.56255 11.29775,-13.51155 8.7315,-2.88165 22.03558,3.91537 22.03558,11.25792 0,4.50962 -4.66632,4.60459 -8.15768,0.16604 -3.41719,-4.34425 -9.66543,-5.62845 -13.8965,-2.85614 -4.21709,2.76314 -4.17367,6.81834 0.14097,13.16791 5.96045,8.77158 1.14587,14.39764 -5.12863,5.99304 z m -18.24901,-22.3647 c -2.02814,-2.02814 -2.70915,-4.45071 -2.70915,-9.63737 v -6.92822 l -4.61203,4.47016 c -3.88145,3.76205 -4.9375,4.20004 -6.66667,2.76496 C 720.92459,761.77415 720,760.41138 720,759.68362 c 0,-0.72775 4.6283,-6.0792 10.2851,-11.89211 7.20617,-7.40502 11.09376,-10.45256 12.98638,-10.18022 3.81008,0.54826 4.07603,4.23606 0.84683,11.74255 -1.53174,3.56061 -2.78498,8.05914 -2.78498,9.99673 0,3.47954 0.0859,3.44778 6.9771,-2.58051 7.28757,-6.37498 10.85138,-7.54418 12.20928,-4.00556 0.55277,1.4405 -2.16138,4.88721 -8.66208,11 -12.08249,11.36149 -12.5086,11.58453 -15.81515,8.27798 z m -26.67927,-17.35735 c -1.65307,-1.02165 -1.50695,-3.30553 0.65504,-10.23857 0.68881,-2.20885 0.0774,-3.42588 -2.60345,-5.18246 -3.32101,-2.17601 -3.7778,-2.17207 -8.76193,0.0755 -4.17972,1.88479 -5.65852,2.03896 -7.20965,0.75164 -1.07326,-0.89073 -1.61217,-2.50347 -1.19758,-3.58387 0.85364,-2.22455 9.84711,-6.984 19.75436,-10.45425 3.66667,-1.28433 7.99621,-2.96213 9.62121,-3.72843 2.1683,-1.02251 3.49888,-0.94153 5,0.3043 2.71651,2.2545 2.62886,3.00981 -1.45497,12.53766 -8.03142,18.73783 -10.17095,21.76327 -13.80303,19.51852 z m 5.97012,-21.3518 C 715.78656,732.6 715.52197,732 714.74536,732 c -0.77662,0 -1.41203,0.6 -1.41203,1.33333 0,0.73334 0.26459,1.33334 0.58798,1.33334 0.32339,0 0.9588,-0.6 1.41202,-1.33334 z m -38.80498,-9.87965 c -1.08417,-2.8253 2.41412,-8.49734 11.11981,-18.02936 5.70773,-6.2495 8.44522,-8.34046 10.09204,-7.70851 3.80586,1.46044 2.56981,4.85186 -4.8884,13.41261 -3.93152,4.5127 -7.85263,9.55491 -8.71358,11.20491 -1.74111,3.33678 -6.491,4.03607 -7.60987,1.12035 z M 651,703.04205 c -2.7813,-0.99727 -1.88298,-4.8387 2.32546,-9.94428 3.21929,-3.90556 3.83233,-5.64215 3.16667,-8.97046 -0.59419,-2.97093 -0.3118,-4.18421 1.00787,-4.3304 1.00833,-0.11169 2.43333,-0.34248 3.16667,-0.51286 0.73333,-0.17038 1.79716,-0.37899 2.36407,-0.46358 0.5669,-0.0846 0.0459,-1.65681 -1.15772,-3.49381 -1.76359,-2.69157 -1.86729,-3.727 -0.53415,-5.33333 0.90988,-1.09633 2.2046,-1.99333 2.87717,-1.99333 2.5563,0 20.45063,18.06738 20.45063,20.64841 0,4.16983 -3.97751,3.87521 -9.16424,-0.6788 -2.61597,-2.29685 -5.38708,-3.78625 -6.15803,-3.30978 -0.86231,0.53293 -0.33311,1.73162 1.37519,3.11491 1.81665,1.47104 2.46884,3.05144 1.88601,4.57027 -0.96357,2.51102 -5.26662,3.15484 -6.6056,0.98832 -1.36433,-2.20754 -2.51212,-1.54202 -5.8873,3.41362 -3.50783,5.15039 -6.51384,7.22696 -9.1127,6.2951 z m -14.02655,-18.70872 c -2.2458,-2.48761 -4.70579,-11.32859 -5.28672,-19 l -0.3534,-4.66666 -6,7.70833 c -4.24411,5.4525 -6.77641,7.59858 -8.65304,7.33333 -5.05913,-0.71509 -3.44347,-4.82448 6.67796,-16.98527 7.89076,-9.48067 10.81815,-12.12401 13.07148,-11.80316 2.72147,0.3875 2.92286,1.19936 3.21053,12.94258 0.1688,6.89103 0.63452,12.85674 1.03492,13.25714 0.40039,0.4004 3.30007,-2.19497 6.44372,-5.76748 4.08623,-4.64369 6.35699,-6.24941 7.96508,-5.63232 3.68035,1.41228 2.6341,4.50894 -4.72178,13.97547 -9.40469,12.1032 -9.94546,12.45209 -13.38875,8.63804 z m -36.82669,-24.7881 c -10.09322,-5.82411 -8.50542,-21.96774 2.84105,-28.88577 5.67843,-3.46218 13.02088,-3.41855 17.49905,0.10398 2.9628,2.33054 3.51314,3.81328 3.51314,9.46516 0,11.74316 -5.93491,19.49697 -15.77088,20.60424 -2.73752,0.30818 -6.30056,-0.25946 -8.08236,-1.28761 z m 12.76731,-9.11098 c 3.76578,-3.53777 4.4418,-13.62865 1.00147,-14.94883 -2.67708,-1.02729 -9.4314,2.45194 -11.20935,5.77406 -4.83591,9.03598 2.92785,16.01399 10.20788,9.17477 z m -36.78769,-8.53251 c -13.38877,-11.26591 -4.90913,-32.56841 12.96415,-32.56841 4.4466,0 6.01127,0.82511 10.05725,5.30352 7.73479,8.56149 2.54408,13.51655 -5.61366,5.35881 -3.56908,-3.56909 -4.41331,-3.84886 -7.76679,-2.57386 -6.0028,2.28226 -8.434,5.24319 -8.434,10.27169 0,3.60099 1.06224,5.58649 4.83999,9.04677 8.12821,7.44516 2.43863,12.30161 -6.04694,5.16148 z"
         inkscape:label="confiance" />
      <path
         id="path235"
         style="display:inline;fill:#000000"
         d="m 1448.3333,829.21871 c -3.1166,-2.98057 -5.6666,-6.20947 -5.6666,-7.17535 0,-1.77613 12.2156,-13.68783 20.5785,-20.06651 4.1222,-3.14419 5.0401,-3.33614 9.8104,-2.05164 3.8563,1.0384 6.2,2.83348 8.7702,6.71735 4.101,6.19711 4.2302,7.09786 1.3591,9.48066 -1.8675,1.54983 -2.795,1.02486 -7.0912,-4.01328 -4.2668,-5.00378 -5.3098,-5.59985 -7.6278,-4.35927 -4.9976,2.67464 -6.3227,5.2497 -3.9316,7.64073 4.8825,4.88251 0.5953,9.19574 -5.3005,5.33266 -2.7302,-1.7889 -3.8056,-1.90932 -5.3803,-0.60248 -1.6914,1.40374 -1.3684,2.25194 2.2978,6.03457 3.5864,3.70022 3.9943,4.72851 2.5607,6.45588 -2.5534,3.07672 -4.1637,2.55024 -10.3787,-3.39332 z m -25.4624,-25.54778 c -2.4548,-2.45479 -1.9918,-3.35224 6.7958,-13.17291 6.5394,-7.30822 8.3333,-10.22994 8.3333,-13.57221 0,-6.9315 4.149,-6.22154 12.3837,2.11907 4.9514,5.01506 6.7945,7.80802 6.1907,9.38141 -1.1883,3.0966 -4.4721,2.80131 -8.243,-0.74123 l -3.1737,-2.9816 -8.0547,9.01095 c -9.1663,10.25464 -11.9715,12.21708 -14.2321,9.95652 z m 64.8183,-3.58144 c -6.5512,-4.15461 -9.694,-8.4165 -8.5004,-11.52701 1.2135,-3.16223 5.6199,-2.13825 10.4892,2.43752 2.5362,2.38333 5.9371,5.23333 7.5575,6.33333 2.0023,1.35928 2.6577,2.74751 2.046,4.33334 -1.2877,3.33801 -4.5395,2.89559 -11.5923,-1.57718 z m -84.1336,-11.64505 c -2.5016,-2.5016 0.016,-6.23997 17.2493,-25.61731 1.979,-2.22512 8.5284,-0.9586 8.5284,1.64921 0,2.13473 -21.4455,24.85699 -23.4603,24.85699 -0.7857,0 -1.8286,-0.4 -2.3174,-0.88889 z m -20.0035,-15.95614 c -4.033,-3.14215 -6.2188,-5.87078 -6.2188,-7.76349 0,-4.01967 21.8107,-25.3386 24.7637,-24.20541 1.1666,0.44766 2.372,0.81393 2.6787,0.81393 0.3067,0 0.5576,0.95273 0.5576,2.11716 0,1.16444 -4.35,6.26504 -9.6666,11.33466 l -9.6667,9.2175 5.1625,4.61374 c 3.3213,2.96832 4.8816,5.34541 4.3751,6.66534 -1.2764,3.32639 -5.3486,2.37729 -11.9855,-2.79343 z m -23.223,-14.02589 c -2.1375,-2.13752 -0.3403,-5.16061 9.8767,-16.61314 4.6535,-5.21624 8.4609,-10.12269 8.4609,-10.90323 0,-2.26445 6.648,-6.86948 8.7517,-6.06222 4.9056,1.88244 1.073,8.50713 -15.5461,26.87157 -7.7498,8.56372 -8.9748,9.27546 -11.5432,6.70702 z m -19.4402,-10.01797 c -2.1143,-2.11427 -0.4552,-5.46636 5.8807,-11.88199 l 6.7696,-6.85473 -2.5934,-4.83865 -2.5933,-4.83864 -8.714,7.98479 c -8.84,8.10025 -12.4219,9.63606 -13.8421,5.93512 -0.9809,-2.55627 1.0844,-4.88558 16.7384,-18.8784 12.8863,-11.51883 16.3234,-12.93821 19.329,-7.98227 1.2112,1.99703 0.8249,2.94346 -2.1971,5.38342 -4.1339,3.33764 -4.6646,6.37219 -1.5644,8.94512 1.7519,1.45399 2.8507,1.34166 6.5936,-0.67407 2.4703,-1.33033 5.4243,-2.06082 6.5645,-1.62331 3.541,1.35884 2.4045,5.97254 -2.037,8.26938 -2.2605,1.16894 -8.7772,6.58435 -14.4815,12.03424 -10.0767,9.6272 -11.9961,10.87693 -13.853,9.01999 z M 1315.54,712.22835 c -2.5357,-2.80193 -2.8925,-9.72622 -0.7206,-13.98267 2.8262,-5.53841 14.9908,-16.91235 18.0881,-16.91235 4.0146,0 6.2341,4.17415 3.9098,7.35285 -0.9604,1.31334 -2.3396,2.02107 -3.065,1.57274 -1.4645,-0.90507 -9.8996,7.37625 -12.3188,12.0942 -1.2607,2.4586 -1.1724,3.16409 0.4752,3.79633 2.7769,1.0656 10.4398,-3.90827 15.9638,-10.3619 4.7505,-5.54989 9.034,-6.48084 9.8691,-2.14488 0.6095,3.16515 -10.7731,14.98395 -17.626,18.30138 -6.9634,3.3709 -11.6987,3.46327 -14.5756,0.2843 z m -18.799,-21.44136 c -1.343,-2.17305 0.6905,-5.15903 6.0364,-8.86373 l 5.245,-3.63479 -2.6715,-4.14424 c -1.4694,-2.27933 -3.2411,-4.00532 -3.9373,-3.83555 -0.6961,0.16978 -3.9518,2.20206 -7.2349,4.51618 -6.2858,4.43066 -10.1787,4.45393 -10.1787,0.0608 0,-1.50292 2.3022,-4.04962 5.6667,-6.26848 3.1166,-2.05544 9.7202,-7.00566 14.6746,-11.00049 7.4809,-6.03197 9.3457,-6.98305 11,-5.6101 3.0708,2.54851 2.4089,4.73007 -2.6894,8.86405 l -4.6815,3.796 3.23,4 3.23,4 3.204,-3 c 3.7719,-3.53158 5.4288,-3.73536 7.7389,-0.9518 1.4227,1.71421 1.0688,2.71809 -2.17,6.15607 C 1317.221,681.22097 1302.544,692 1299.8798,692 c -1.314,0 -2.7264,-0.54585 -3.1388,-1.21301 z"
         inkscape:label="humilite" />
      <path
         id="path212"
         style="display:inline;fill:#000000"
         d="m 995.55966,1050.6865 c -2.51042,-2.2041 -5.31746,-5.8256 -6.23788,-8.0477 -1.46131,-3.5279 -1.35535,-4.3926 0.8357,-6.8199 4.43224,-4.9101 20.17632,-12.013 25.62232,-11.5593 4.1655,0.347 5.5172,1.3502 9.1569,6.7963 2.3485,3.5141 3.9343,7.2641 3.524,8.3333 -1.3512,3.5212 -5.7765,2.1264 -8.6374,-2.7225 -2.5669,-4.3506 -4.9831,-5.7292 -6.8206,-3.8916 -0.4263,0.4263 0.6737,2.9101 2.4444,5.5194 3.737,5.5068 3.8518,6.1876 1.3886,8.2319 -2.2523,1.8692 -5.8119,0.6579 -6.807,-2.3162 -0.4067,-1.2156 -1.8126,-3.6006 -3.1242,-5.3 -2.1301,-2.7598 -2.7686,-2.915 -5.978,-1.4527 -4.54695,2.0718 -4.50285,2.9482 0.4068,8.0857 4.702,4.9202 4.8771,5.8936 1.3954,7.7569 -2.1248,1.1372 -3.4456,0.6557 -7.16904,-2.6136 z M 976.15033,1027 c -1.01598,-1.8021 -0.52941,-3.1572 2.13702,-5.9518 2.55798,-2.6809 3.08496,-4.0628 2.0339,-5.3333 -0.78024,-0.9432 -1.62171,-3.5149 -1.86994,-5.7149 L 978,1006 l -6.14911,5.6667 c -6.65676,6.1345 -8.04612,6.6445 -10.39375,3.8158 -1.99593,-2.4049 2.57374,-7.9651 13.38035,-16.28061 10.56332,-8.12829 12.61146,-7.59082 12.10977,3.17781 -0.22357,4.7988 0.16528,8.287 0.92378,8.287 0.72043,0 3.48775,-1.285 6.14961,-2.8556 4.46259,-2.6329 5.00817,-2.687 7.00115,-0.6941 1.9929,1.9929 1.9074,2.4361 -1.0969,5.6873 -3.84688,4.1629 -19.85032,16.529 -21.39082,16.529 -0.58753,0 -1.66022,-1.05 -2.38375,-2.3333 z m -26.59644,-22.4623 c -2.12122,-1.4857 -2.91577,-3.1942 -2.63001,-5.65522 0.49241,-4.2408 4.52935,-5.47324 6.97453,-2.12927 2.3962,3.27699 4.19463,1.60097 6.00751,-5.59862 3.26189,-12.95415 8.28506,-17.80836 13.52296,-13.06812 4.31187,3.90218 2.41101,12.5802 -2.7556,12.5802 -1.83577,0 -3.01794,1.50766 -4.15315,5.29666 -2.98924,9.97717 -9.94483,13.49237 -16.96624,8.57437 z m -12.665,-14.75992 c -2.21201,-2.21201 -0.1631,-5.79434 8.50539,-14.87086 9.3593,-9.79986 13.38626,-11.58773 14.38768,-6.38778 0.32175,1.67074 -2.72942,5.71875 -9.28466,12.31803 -9.34473,9.40751 -11.6361,10.91292 -13.60841,8.94061 z m -13.29614,-15.29289 c -4.05669,-2.30332 -5.16849,-7.32125 -2.85422,-12.882 2.53284,-6.0859 12.28545,-16.26956 15.58093,-16.26956 4.74662,0 4.20338,4.02974 -1.31648,9.76553 -5.51246,5.7281 -9.0492,11.29936 -7.90158,12.44698 1.41873,1.41873 9.09887,-3.89188 11.91401,-8.23821 4.96012,-7.65801 11.36032,-5.07816 7.20775,2.90536 -4.61958,8.88136 -16.88633,15.53331 -22.63041,12.2719 z M 909.17544,957 c -0.24313,-2.56638 -0.23887,-2.61937 0.72304,-8.99427 l 0.90447,-5.99427 -4.59383,4.45252 c -5.00635,4.85235 -9.29869,5.20262 -9.93078,0.81039 -0.45502,-3.1618 12.74546,-18.42644 18.20702,-21.05405 4.75586,-2.28809 9.15027,-1.34926 11.66762,2.49269 3.01711,4.60469 0.31678,12.42301 -4.98143,14.42286 -3.1755,1.19862 -3.83822,2.21919 -3.83822,5.91077 0,2.4541 -0.62111,5.62256 -1.38024,7.04102 -1.53006,2.85893 -6.52948,3.5319 -6.77765,0.91234 z m -30.06908,-28.44401 c -0.54719,-1.42596 1.86845,-4.81309 7.44629,-10.44095 l 8.25623,-8.33028 -4.16487,-3.22571 c -4.47211,-3.46368 -4.48007,-7.89238 -0.0142,-7.89238 5.46432,0 21.37018,16.1375 21.37018,21.68139 0,4.27066 -4.49983,3.93961 -8.23452,-0.60582 l -3.62253,-4.40891 -7.7768,7.66667 c -7.86966,7.7582 -11.78515,9.39883 -13.25979,5.55599 z m -11.25988,-15.0191 c -1.7489,-1.35472 -4.97248,-3.30928 -7.16351,-4.34349 -2.19103,-1.0342 -4.15614,-2.77581 -4.36691,-3.87024 -0.21076,-1.09442 4.13926,-6.48215 9.66671,-11.97271 8.45158,-8.39518 10.41842,-9.75187 12.36691,-8.53048 2.87674,1.80324 3.89069,7.18003 1.354,7.18003 -0.99832,0 -4.35672,2.58969 -7.46311,5.75487 l -5.64798,5.75488 3.47361,1.85901 c 4.65367,2.49057 6.59556,6.2273 4.52973,8.71647 -2.06362,2.48652 -2.92151,2.41682 -6.74945,-0.54834 z m -20.67559,-16.81275 c -0.46033,-1.19961 0.59921,-4.26388 2.42636,-7.01714 l 3.24354,-4.8876 -4.28439,-3.76174 c -3.73844,-3.2824 -4.7559,-3.58247 -7.98465,-2.35491 -2.95746,1.12443 -4.1223,0.97709 -5.80267,-0.73397 -1.91675,-1.95176 -1.8466,-2.35077 0.79437,-4.51828 3.94818,-3.24036 26.42366,-10.96091 29.01443,-9.96674 2.65047,1.01708 2.6999,5.01587 0.0888,7.18291 -1.1,0.91292 -2,3.59329 -2,5.95638 0,6.43346 -7.94513,21.27449 -11.67263,21.8038 -1.82061,0.25853 -3.32821,-0.4129 -3.82315,-1.70271 z"
         inkscape:label="altruisme" />
      <path
         id="path208"
         style="display:inline;fill:#000000"
         d="m 1577.5891,1102.0876 c -5.3648,-6.1102 -6.2909,-9.4845 -3.6918,-13.4512 2.3638,-3.6077 14.0292,-7.6633 22.5922,-7.8546 6.3911,-0.1427 10.4377,4.4407 10.6811,12.098 0.1521,4.7853 -0.099,5.1364 -3.8373,5.3684 -2.2,0.1366 -5.2629,0.6338 -6.8064,1.1049 -2.2364,0.6827 -3.3782,-0.1124 -5.6217,-3.9149 -2.7694,-4.6937 -5.7944,-5.8573 -9.3571,-3.5992 -1.3847,0.8777 -0.8295,2.2199 2.4746,5.9832 4.502,5.1275 4.5681,8.8445 0.1573,8.8445 -1.4137,0 -4.3796,-2.0606 -6.5909,-4.5791 z M 1599.9796,1093 c -0.03,-2.4119 -2.3567,-5.734 -3.3328,-4.7579 -0.4574,0.4574 -0.046,2.09 0.9149,3.6281 2.0195,3.2337 2.4461,3.433 2.4179,1.1298 z m -37.3129,-15.6667 c -3.5607,-3.5607 -3.5535,-11.8463 0.014,-16.382 5.8814,-7.477 24.2907,-10.0418 30.6658,-4.2724 4.5783,4.1432 2.616,16.6544 -2.6121,16.6544 -2.645,0 -4.2499,-3.8354 -2.7656,-6.609 2.1641,-4.0436 0.636,-5.391 -6.114,-5.391 -8.0486,0 -13.8551,3.0877 -13.8551,7.3676 0,2.4338 0.7148,3.2991 2.7251,3.2991 1.4988,0 2.6277,-0.75 2.5087,-1.6667 -0.6727,-5.1804 2.7208,-7.5215 6.0609,-4.1814 3.0604,3.0604 2.5682,9.3259 -0.9247,11.7725 -4.2474,2.975 -12.4459,2.6664 -15.7033,-0.5911 z m -11.1111,-26.2222 c -1.9695,-1.9694 -0.6913,-5.2933 3.2956,-8.5705 3.4285,-2.8182 4.0474,-4.1016 3.3391,-6.9237 -0.7368,-2.9355 -1.7125,-3.5267 -6.3941,-3.8739 -6.2609,-0.4643 -9.9936,-4.1764 -6.4629,-6.4272 2.1959,-1.3998 25.5307,-1.7624 30.348,-0.4716 4.5786,1.2269 5.3213,6.5809 1.4818,10.6817 -3.2766,3.4996 -21.9572,16.4741 -23.7192,16.4741 -0.5497,0 -1.3995,-0.4 -1.8883,-0.8889 z m 17.1111,-17.7778 c 0.4532,-0.7333 -0.1114,-1.3333 -1.2547,-1.3333 -1.1433,0 -2.0787,0.6 -2.0787,1.3333 0,0.7334 0.5646,1.3334 1.2547,1.3334 0.69,0 1.6254,-0.6 2.0787,-1.3334 z m -1.6629,-19 c -0.7275,-0.9166 -1.7322,-3.938 -2.2326,-6.714 -0.8957,-4.9693 -0.9861,-5.0347 -5.8405,-4.2207 -2.7119,0.4547 -9.381,2.0017 -14.8203,3.4378 -11.076,2.9243 -13.828,2.5496 -13.2039,-1.7979 0.3652,-2.5441 2.1553,-3.4148 12.3991,-6.03077 6.5847,-1.68156 13.9335,-3.19621 16.3306,-3.36589 4.9794,-0.35246 5.5511,-1.57926 1.6971,-3.64184 -3.1783,-1.70098 -3.5974,-7.72652 -0.617,-8.87022 2.4667,-0.94656 6.7836,2.72081 9.6528,8.20041 2.608,4.98069 3.4966,22.17121 1.2209,23.61811 -2.222,1.4127 -3.0669,1.2994 -4.5862,-0.615 z m -46.9541,-30.94006 c -1.2961,-1.56175 -0.946,-2.81086 1.7955,-6.40511 3.3387,-4.37719 8.0561,-14.1979 7.2212,-15.03285 -0.2327,-0.23273 -2.876,0.23156 -5.874,1.03176 -6.4583,1.72382 -9.8591,0.74445 -9.8591,-2.83925 0,-1.84875 1.2473,-2.87652 4.3062,-3.54837 2.3684,-0.52018 8.7433,-2.96786 14.1665,-5.43927 5.4231,-2.47142 10.4096,-4.49348 11.0811,-4.49348 1.3532,0 8.1376,4.53462 12.7796,8.54178 4.323,3.73179 3.9156,9.41437 -1.0294,14.35937 -3.4936,3.49363 -4.7789,3.95334 -9.6667,3.45756 -3.1005,-0.31448 -6.61,-1.00839 -7.7989,-1.54202 -1.6275,-0.73046 -3.0382,0.52544 -5.7085,5.08201 -3.0005,5.11995 -6.8334,8.76796 -9.2123,8.76796 -0.3251,0 -1.3156,-0.87304 -2.2012,-1.94009 z m 28.038,-18.10682 c 5.5511,-2.97091 1.3748,-7.95309 -6.6667,-7.95309 -5.1317,0 -5.3759,2.79312 -0.5745,6.5699 4.084,3.21252 3.8917,3.17578 7.2412,1.38319 z m -43.7544,-22.21768 c -3.2478,-1.21655 -1.5954,-5.56775 3.7101,-9.76977 4.2135,-3.33715 5.198,-4.8758 4.5508,-7.11204 -1.4563,-5.03144 -5.7039,-7.52026 -12.8346,-7.52026 -6.094,0 -6.5784,-0.23494 -6.1857,-3 0.4197,-2.95525 0.7145,-2.99954 19.7594,-2.96921 21.0876,0.0336 25.8207,1.23159 25.0809,6.3482 -0.2288,1.58296 -2.2043,3.78022 -4.4142,4.90978 -2.2,1.12451 -7.9,5.09023 -12.6667,8.81271 -11.3387,8.85491 -14.9759,11.05874 -17,10.30059 z m 19,-21.73541 C 1523.7866,920.6 1522.922,920 1521.412,920 c -1.5099,0 -2.7453,0.6 -2.7453,1.33333 0,0.73334 0.8646,1.33334 1.9213,1.33334 1.0567,0 2.2921,-0.6 2.7453,-1.33334 z m -20.2346,-21.33838 c -1.5958,-0.64314 -4.2479,-2.99069 -5.8937,-5.21677 l -2.9924,-4.04741 -6.8101,3.89635 c -4.2534,2.43354 -7.4712,3.48782 -8.5709,2.80818 -3.9281,-2.42774 -0.5256,-6.25143 11.8528,-13.3199 6.9569,-3.97261 13.433,-8.32372 14.3912,-9.66916 2.9268,-4.1093 10.0802,-3.20092 14.8607,1.88709 8.77,9.33428 9.7342,20.75034 2.0008,23.69058 -4.1841,1.59081 -14.8603,1.57439 -18.8384,-0.029 z m 16.2104,-7.95579 c 1.0304,-1.66719 -2.8965,-9.29786 -5.2495,-10.2008 -2.0999,-0.80578 -12.7263,4.29869 -12.7263,6.11313 0,4.04692 15.7829,7.63591 17.9758,4.08767 z"
         inkscape:label="partage" />
      <path
         id="path206"
         style="display:inline;fill:#000000"
         d="m 1956.6667,1120 c -2.9334,-2.1399 -6.6536,-3.9154 -8.2671,-3.9454 -1.6136,-0.03 -3.4136,-0.867 -4,-1.86 -0.5865,-0.9929 -2.4654,-2.5403 -4.1755,-3.4387 -2.6162,-1.3743 -3.3724,-1.2735 -4.7683,0.6354 -4.0652,5.5596 -13.8449,-4.8825 -12.0835,-12.902 1.2921,-5.8831 11.2054,-15.435 17.1827,-16.5563 9.684,-1.8168 16.04,5.9084 16.2509,19.7517 0.1365,8.9621 0.2332,9.2027 5,12.4418 5.0761,3.4493 6.3603,7.6794 2.7517,9.0642 -2.5906,0.9941 -1.6124,1.3896 -7.8909,-3.1907 z m -8.9329,-26.319 c -2.5961,-5.4334 -6.5367,-5.3026 -12.5641,0.4172 l -5.1697,4.906 5.3333,1.6022 c 2.9334,0.8812 7.1334,2.5555 9.3334,3.7206 l 4,2.1184 0.4129,-4.5417 c 0.2272,-2.4979 -0.3785,-6.1981 -1.3458,-8.2227 z m 16.8482,-4.8118 c -11.1043,-6.3509 -22.0535,-14.4571 -21.5728,-15.9712 0.2731,-0.8606 1.8078,-2.1569 3.4104,-2.8808 1.6025,-0.7239 2.9137,-2.064 2.9137,-2.978 0,-0.914 2.2316,-6.1717 4.9591,-11.6838 3.445,-6.9624 5.6967,-10.0221 7.3752,-10.0221 5.2375,0 3.8501,6.1497 -5.7581,25.523 -1.1586,2.3362 -0.3769,3.8293 1.9794,3.7804 0.7944,-0.016 3.5444,-3.003 6.1111,-6.6367 3.2074,-4.5409 5.6048,-6.6161 7.6667,-6.6367 4.4237,-0.044 3.8186,4.0266 -1.6667,11.2128 -2.5667,3.3625 -4.6667,6.6357 -4.6667,7.2737 0,0.638 1.7449,1.8828 3.8775,2.7661 5.1709,2.1419 9.6481,-0.7502 13.5093,-8.7263 1.8073,-3.7335 3.7316,-5.8896 5.2562,-5.8896 8.254,0 0.5818,16.7244 -9.8444,21.4594 -6.9059,3.1363 -7.0447,3.1303 -13.5499,-0.5902 z m 18.5581,-37.6548 c -13.9788,-9.9465 -15.7538,-11.7596 -14.4604,-14.77 0.5776,-1.3444 0.9372,-3.6474 0.7993,-5.1176 -0.138,-1.4703 0.5307,-3.7422 1.486,-5.0486 2.106,-2.8801 11.1452,-6.1741 14.5206,-5.2914 3.0558,0.7991 9.1811,6.8188 9.1811,9.0227 0,1.0594 3.2848,1.9696 9.2172,2.5542 6.668,0.657 9.4459,1.5039 10.0438,3.0619 1.4053,3.6622 -1.4112,4.7756 -11.5242,4.5558 -13.6018,-0.2955 -15.2683,1.2051 -8.0702,7.2673 3.7874,3.1898 5.6667,5.8412 5.6667,7.9952 0,5.3149 -5.3227,3.9797 -16.8599,-4.2295 z m 1.7621,-21.5503 c -1.5033,-1.5033 -2.539,-1.5955 -4.7332,-0.4212 -2.3455,1.2553 -2.5513,1.9153 -1.2476,4.0028 1.4413,2.3079 1.8044,2.3402 4.7331,0.4212 2.7643,-1.8112 2.9247,-2.3258 1.2477,-4.0028 z m 21.32,-7.8863 c -2.1302,-2.1303 -0.4795,-4.7574 5.1111,-8.1342 3.3,-1.9933 6,-4.4549 6,-5.4702 0,-1.8874 -1.5775,-1.8364 -18.9892,0.6144 -4.2802,0.6024 -6.9721,0.3509 -8.3333,-0.7789 -3.9105,-3.2454 -1.5926,-12.35413 4.5609,-17.92292 2.6084,-2.36062 3.0219,-2.39712 4.9795,-0.43956 1.9575,1.95756 1.8787,2.54929 -0.9498,7.12586 l -3.0846,4.99102 4.5749,-0.9499 c 15.6,-3.23906 22.9787,-2.09861 25.261,3.9043 1.8533,4.8745 -1.3581,10.3917 -8.4773,14.5638 -5.7999,3.399 -9.0005,4.149 -10.6532,2.4963 z m 18.549,-27.22575 c -10.1932,-5.46327 -19.4379,-13.36884 -19.4379,-16.62239 0,-1.91118 1.0127,-3.40469 2.6638,-3.92875 1.4651,-0.465 4.5173,-3.53938 6.7827,-6.83195 2.5898,-3.76426 4.9419,-5.8297 6.3362,-5.56411 3.6075,0.6872 3.2011,5.3227 -1.0205,11.63989 -2.1727,3.25128 -3.6325,6.42568 -3.2441,7.05424 1.1674,1.88883 6.2413,-0.31124 10.2162,-4.42975 4.2567,-4.41054 5.2801,-4.66338 7.5935,-1.8759 1.7188,2.07105 1.814,1.85333 -4.8036,10.99028 -1.9931,2.75182 -1.9925,3.04827 0.01,3.81584 3.2584,1.25036 6.1698,-1.88684 10.4127,-11.22035 2.8043,-6.16879 4.4379,-8.30528 6.1084,-7.9886 3.6143,0.68519 3.4366,6.86538 -0.4161,14.46832 -6.7345,13.28984 -11.5416,15.66929 -21.199,10.49323 z m -26.1898,-22.60473 c -1.551,-0.9586 -1.4624,-2.57798 0.5586,-10.20998 3.098,-11.69957 4.999,-15.59921 7.8742,-16.15291 3.9117,-0.75333 4.0218,3.06709 0.428,14.84933 -3.4193,11.21011 -5.3315,13.69478 -8.8608,11.51356 z m 44.7519,-15.49476 c -6.5749,-1.40892 -13.836,-4.76869 -14.5981,-6.75466 -0.4582,-1.19424 0.014,-3.0188 1.0501,-4.05458 1.622,-1.62209 2.4414,-1.59455 5.909,0.19859 2.2142,1.145 6.6388,2.48774 9.8324,2.98388 6.5881,1.02347 6.9686,2.05488 -3.9406,-10.68018 -5.8826,-6.86722 -6.9809,-10.65841 -3.4771,-12.00296 1.16,-0.44512 2.2663,-0.80932 2.4584,-0.80932 1.0386,0 18.1751,21.37425 19.5424,24.37524 2.3904,5.24624 -0.1801,7.66461 -7.9397,7.47009 -3.3936,-0.0851 -7.3701,-0.41181 -8.8368,-0.7261 z m 13.7174,-24.74271 c -7.1541,-7.34491 -11.7041,-13.87322 -11.7124,-16.80509 0,-0.96905 -0.9038,-2.66071 -2.0023,-3.75926 -2.4885,-2.48844 -1.3874,-4.69564 5.8324,-11.69141 4.5471,-4.4061 5.6981,-4.94814 7.4388,-3.5034 2.854,2.3686 2.6368,3.29897 -2.0045,8.58517 -3.5294,4.01967 -3.8451,4.97928 -2.3998,7.29357 1.6099,2.57793 1.742,2.53716 4.0444,-1.24892 2.5187,-4.1416 7.311,-5.28302 8.5563,-2.03791 0.3959,1.03177 -0.8817,4.41298 -2.8392,7.5138 l -3.559,5.63786 4.7425,4.74248 c 4.5043,4.50433 4.8677,4.62914 7.2363,2.48553 1.3717,-1.24132 3.8989,-5.25665 5.6161,-8.92294 2.4343,-5.19736 3.8064,-6.666 6.2276,-6.666 4.3697,0 4.0511,4.0837 -1.032,13.22553 -8.0782,14.52862 -13.8183,15.75318 -24.1452,5.15099 z m 30.0095,-27.23624 c -10.94,-7.32113 -18.2217,-14.59433 -16.8437,-16.82398 0.5455,-0.8825 1.0782,-4.16616 1.1839,-7.29703 0.2544,-7.53292 3.4612,-11.01927 10.1357,-11.01927 4.0133,0 6.2789,1.04436 10.4601,4.82182 3.386,3.05908 5.3371,5.98368 5.3371,8 0,2.91533 0.5392,3.17818 6.519,3.17818 7.2333,0 13.1491,3.4673 11.8209,6.92843 -0.6401,1.66799 -3.1195,1.90814 -14.5557,1.40982 l -13.7842,-0.60064 6.939,6.1812 c 6.7395,6.00352 7.7853,9.00631 3.6848,10.57983 -1.0102,0.38765 -5.9138,-2.02361 -10.8969,-5.35836 z m 0.8105,-23.96277 c -5.264,-6.34268 -10.7999,-4.91579 -7.9183,2.04095 1.6433,3.96713 1.7357,3.99989 5.6202,1.99115 3.2872,-1.69989 3.6725,-2.37596 2.2981,-4.0321 z m -54.7547,17.54454 c -1.1221,-2.46274 -1.0779,-4.76267 0.1779,-9.24801 1.6878,-6.028 3.7018,-7.99745 6.4449,-6.30215 1.6635,1.02809 1.5247,14.46582 -0.1772,17.16145 -1.7042,2.69923 -4.8386,1.91568 -6.4456,-1.61129 z m 85.1734,-31.16956 c -4.9258,-8.67946 -8.9561,-17.09829 -8.9561,-18.70851 0,-3.37368 2.6964,-4.79868 7.003,-3.70106 4.0514,1.03255 26.3469,13.81003 29.6214,16.97588 2.4904,2.40778 2.5063,2.65532 0.3118,4.84985 -2.0238,2.02372 -2.6846,2.08164 -5.2911,0.46378 -8.0232,-4.98016 -7.687,-4.92651 -10.369,-1.65461 -2.5154,3.06874 -2.513,3.1841 0.1799,8.4626 2.9995,5.8794 2.602,9.09292 -1.1247,9.09292 -1.6959,0 -5.0967,-4.71796 -11.3752,-15.78085 z M 2126,858.66667 c 0.4532,-0.73334 0.5377,-1.33334 0.1877,-1.33334 -0.3499,0 -1.5921,-0.3668 -2.7604,-0.81512 -1.5548,-0.5966 -1.9032,-0.23916 -1.2998,1.33334 0.9336,2.43286 2.6495,2.79403 3.8725,0.81512 z m 13.7285,-10.17324 c -16.7576,-15.67152 -14.9136,-19.22613 7.1461,-13.77539 6.55,1.61846 12.2182,2.63363 12.5959,2.25594 0.3777,-0.37769 -3.5487,-4.17101 -8.7252,-8.4296 -9.1834,-7.55489 -11.5581,-11.80454 -7.4723,-13.37239 2.8645,-1.0992 23.9605,15.85297 26.5691,21.35021 2.7701,5.83765 2.7158,7.0854 -0.3807,8.74262 -2.3659,1.26614 -12.7952,0.16224 -20.7927,-2.20083 -1.9896,-0.58786 -1.3781,0.63675 2.4133,4.83337 2.7929,3.09139 4.8851,6.62225 4.6493,7.84636 -0.927,4.81388 -5.1469,2.90203 -16.0028,-7.25029 z m 33.8606,-25.85929 c -4.8059,-2.93011 -9.5123,-11.64416 -9.5598,-17.70035 -0.066,-8.39419 7.5585,-16.58412 11.6395,-12.50304 1.8104,1.81032 1.7234,2.40712 -0.8222,5.64331 -4.7786,6.07502 -2.8839,15.12586 3.901,18.63445 4.5121,2.3333 12.7252,0.3863 13.8931,-3.2935 1.1403,-3.59279 4.9567,-4.68124 6.9337,-1.97754 1.3202,1.80548 1.2569,2.99916 -0.3208,6.05 -4.0095,7.75361 -17.0871,10.37614 -25.6645,5.14667 z m 24.2628,-23.31855 C 2189.9338,794.09821 2184,787.52722 2184,783.97639 c 0,-1.36712 -0.6,-2.8565 -1.3333,-3.30972 -2.3886,-1.47621 -1.4053,-5.86923 1.6666,-7.44642 1.65,-0.84713 4.9105,-3.34761 7.2455,-5.55662 4.5204,-4.27652 8.4212,-4.25564 8.4212,0.0451 0,1.35248 -1.8,4.18357 -4,6.2913 -2.5484,2.44152 -4,5.16476 -4,7.5041 0,5.5509 2.0975,5.73085 6.0713,0.52088 2.3274,-3.05135 4.6886,-4.69165 6.7536,-4.69165 4.5825,0 4.1505,4.86666 -0.894,10.07126 l -4.069,4.19821 3.6667,2.40254 3.6667,2.40253 4.2103,-4.8706 c 7.5188,-8.69793 13.0303,-4.82431 6.5143,4.57835 -6.4576,9.31823 -9.9401,9.87354 -20.068,3.19997 z"
         inkscape:label="perseverance" />
      <path
         id="path200"
         style="display:none;fill:#000000"
         d="m 1684.2207,1307.4184 c -6.0847,-6.6012 -6.8429,-9.8387 -3.0976,-13.2282 3.2426,-2.9345 23.6229,-10.3319 25.9767,-9.4287 2.5718,0.987 8.1013,13.2559 7.1231,15.8051 -1.3323,3.4718 -4.4583,2.3846 -7.3796,-2.5666 -1.5143,-2.5667 -3.6736,-4.6667 -4.7983,-4.6667 -2.2766,0 -2.7922,3.3809 -0.7117,4.6667 2.1246,1.3131 1.5435,6.0031 -0.858,6.9246 -1.4719,0.5648 -3.3323,-0.5379 -5.6666,-3.3588 -2.5845,-3.1232 -3.9821,-3.8783 -5.4519,-2.9459 -1.6546,1.0496 -1.3629,1.8944 1.7898,5.1852 3.9552,4.1283 4.3023,8.546 0.7255,9.2348 -1.1535,0.2222 -4.5966,-2.3075 -7.6514,-5.6215 z m 41.1783,-13.3393 c -0.8768,-1.0564 -3.2002,-2.1064 -5.1632,-2.3333 -2.8082,-0.3245 -3.5691,-1.1231 -3.5691,-3.7458 0,-2.7683 0.7164,-3.4028 4.2266,-3.7432 5.2254,-0.5067 13.405,5.9722 12.0378,9.5349 -1.0431,2.7184 -5.3773,2.8838 -7.5321,0.2874 z m -60.6218,-13.6053 c -1.2102,-3.1537 2.0035,-6.0829 11.5293,-10.5087 4.5981,-2.1363 8.5794,-4.0216 8.8473,-4.1896 0.268,-0.168 -1.2125,-1.7675 -3.29,-3.5544 -3.2552,-2.8001 -3.5303,-3.5465 -1.9905,-5.4017 2.4902,-3.0006 4.2475,-2.7098 9.1499,1.5139 5.2638,4.5352 13.7301,18.5561 12.7488,21.1133 -1.2931,3.3699 -5.4862,1.9973 -8.4251,-2.758 l -2.8707,-4.6448 -4.8972,2.0462 c -2.6934,1.1254 -7.5261,3.5155 -10.7393,5.3114 -6.8633,3.8359 -8.918,4.0549 -10.0625,1.0724 z m -14.096,-22.4563 c -1.3309,-1.6037 -0.9799,-3.6451 1.8367,-10.6807 1.9152,-4.784 3.4821,-8.9841 3.4821,-9.3335 0,-0.3494 -2.7003,0.6766 -6.0007,2.28 -4.7406,2.3032 -6.3442,2.5718 -7.6367,1.2793 -1.1953,-1.1953 -1.2502,-2.2546 -0.2037,-3.9326 1.9489,-3.1249 20.7349,-13.4232 22.9631,-12.5881 2.4156,0.9054 1.4575,8.3687 -2.2258,17.3377 -2.5816,6.2862 -2.6422,6.9106 -0.5616,5.7891 1.2826,-0.6915 3.7867,-2.8123 5.5645,-4.7129 3.6151,-3.865 7.4166,-4.4957 8.5945,-1.426 1.0916,2.8447 -7.4073,11.8731 -14.3327,15.2256 -6.7351,3.2604 -9.2668,3.4285 -11.4797,0.7621 z m -19.4085,-31.9569 c -7.2789,-7.2789 -2.2561,-20.4364 8.9537,-23.4549 7.1324,-1.9205 15.5761,0.6527 18.3283,5.5857 1.8081,3.2408 1.7038,4.0332 -1.2941,9.8372 -5.4467,10.5449 -19.2186,14.8013 -25.9879,8.032 z m 14.047,-6.0533 c 1.3627,-0.7293 3.3773,-3.1294 4.4769,-5.3336 1.9277,-3.8641 1.8836,-4.0365 -1.232,-4.8185 -7.0507,-1.7696 -15.1594,3.9727 -13.1189,9.2903 0.9374,2.4427 6.0812,2.8916 9.874,0.8618 z m -26.1377,-17.2153 c -4.3015,-2.623 -9.8487,-12.2348 -9.8487,-17.0653 0,-4.2385 3.7777,-7.7097 14.0867,-12.9439 10.6905,-5.4279 12.3231,-5.7239 13.5081,-2.4495 0.4644,1.2834 3.1456,4.87 5.9582,7.9702 8.7794,9.6776 6.1353,18.6684 -5.2196,17.7487 -1.65,-0.1337 -3,0.4272 -3,1.2463 0,2.3681 -6.3092,8.0353 -8.9394,8.0298 -1.3167,0 -4.2621,-1.1441 -6.5453,-2.5363 z m 7.4847,-8.7176 c 0,-4.4803 -5.935,-11.2781 -8.0397,-9.2086 -1.9197,1.8875 -0.808,5.7215 2.7735,9.5658 3.5315,3.7906 5.2662,3.6729 5.2662,-0.3572 z m 9.5025,-11.645 c -2.3162,-2.0695 -5.1156,-3.7627 -6.221,-3.7627 -1.7351,0 -1.7061,0.4632 0.2121,3.3908 1.222,1.865 3.7858,4.2165 5.6974,5.2256 5.1769,2.7329 5.3735,-0.3308 0.3115,-4.8537 z"
         inkscape:label="bonte" />
      <path
         id="path181"
         style="display:inline;fill:#000000"
         d="m 905.87924,1493.1124 c -5.80025,-5.2548 -11.23507,-10.8048 -12.07738,-12.3333 -1.02069,-1.8522 -1.21341,-5.8441 -0.57782,-11.9688 1.04289,-10.0498 4.02415,-14.1436 10.29983,-14.1436 7.82659,0 19.26913,8.3427 21.02213,15.3272 1.27531,5.0813 -1.41691,13.3385 -5.76736,17.689 l -3.82296,3.823 3.85166,2.5804 c 4.89492,3.2793 5.35121,8.5804 0.73857,8.5804 -2.00063,0 -6.90598,-3.4293 -13.66667,-9.5543 z m 8.00224,-11.8814 c 1.89852,-2.2562 3.45185,-5.4941 3.45185,-7.1952 0,-3.9535 -8.29222,-11.3691 -12.71306,-11.3691 -3.10894,0 -3.28694,0.4112 -3.28694,7.5937 0,6.4242 0.55176,8.1696 3.58279,11.3333 1.97054,2.0568 4.0172,3.7396 4.54814,3.7396 0.53095,0 2.51869,-1.846 4.41722,-4.1023 z m 11.42591,-21.352 c -11.34374,-17.1686 -12.91186,-22.2386 -6.64072,-21.471 1.83333,0.2245 8.13333,0.7255 14,1.1134 7.30438,0.483 12.84886,1.7211 17.58958,3.9279 8.14297,3.7905 9.45846,5.4074 6.66885,8.197 -1.85392,1.8539 -2.61028,1.8358 -7.65753,-0.1837 -3.08023,-1.2325 -5.77353,-2.0657 -5.9851,-1.8517 -0.21157,0.214 -2.21185,2.6904 -4.44506,5.503 l -4.06038,5.1139 3.35697,5.3178 c 3.67626,5.8236 3.75705,9.5154 0.22313,10.196 -1.63997,0.3158 -5.29873,-4.1316 -13.04974,-15.8626 z m 7.35928,-9.2123 c 2.36498,-2.6133 2.32884,-2.6667 -1.80465,-2.6667 -3.88418,0 -4.08617,0.211 -2.55259,2.6667 0.91595,1.4666 1.72804,2.6666 1.80465,2.6666 0.0766,0 1.22527,-1.2 2.55259,-2.6666 z m 13.85037,-24.6563 c -10.86238,-5.5381 -11.6098,-6.201 -13.82986,-12.2658 C 927.95299,1400.8118 930.2862,1396 941.2915,1396 c 5.60862,0 11.27605,2.4099 13.56401,5.7676 0.52671,0.773 4.29754,0.6061 9.81116,-0.4343 7.51693,-1.4183 9.14334,-1.3934 10.12407,0.1551 2.56996,4.0579 0.42715,5.642 -10.43934,7.7173 -4.5734,0.8734 -10.51316,2.349 -13.19948,3.279 l -4.8842,1.691 8.68831,5.4871 c 9.0916,5.7419 11.17205,8.3425 8.67311,10.8414 -2.3874,2.3874 -4.92027,1.7222 -17.1121,-4.4938 z m -2.66991,-19.8678 3.18047,-1.7629 -3.70666,-0.9303 c -3.9451,-0.9902 -6.87869,0.6968 -5.39274,3.1011 1.13248,1.8324 1.98296,1.7738 5.91893,-0.4079 z m 21.4862,-24.0486 c -15.26916,-6.9504 -16.42281,-9.3333 -8.67219,-17.9123 8.17172,-9.0451 17.07548,-8.9164 26.78527,0.3872 5.13789,4.923 5.88692,6.356 5.88692,11.2631 0,6.1679 -4.47838,12.2285 -8.93939,12.0979 -1.31667,-0.039 -8.09394,-2.6647 -15.06061,-5.8359 z m 16.51924,-4.1906 c 1.74047,-4.5356 -6.24435,-12.5701 -12.4924,-12.5701 -3.19349,0 -9.33805,4.5447 -7.90755,5.8487 1.39842,1.2747 16.72098,8.697 18.07139,8.7539 0.83821,0.035 1.88606,-0.8794 2.32856,-2.0325 z m 6.8141,-23.9247 c -8.58454,-4.6267 -14,-12.0082 -14,-19.0826 0,-4.8407 1.28162,-5.8265 11.45095,-8.8079 7.33002,-2.1489 8.49461,-2.1848 12.00315,-0.3705 5.07643,2.6251 7.97763,5.9299 10.49503,11.9549 2.7918,6.6817 2.5834,9.5595 -0.9931,13.7176 -3.8899,4.5222 -13.04785,5.7728 -18.95603,2.5885 z m 13.52703,-8.0026 c 0.9904,-2.5811 -1.6902,-9.1071 -4.95404,-12.0609 -2.21887,-2.008 -3.23001,-2.0778 -8.54483,-0.5898 -7.29287,2.0419 -7.58851,4.0476 -1.49483,10.1413 3.49105,3.491 5.64654,4.5333 9.37518,4.5333 3.09934,0 5.12132,-0.7284 5.61852,-2.0239 z m 6.473,-20.1071 c -22.19777,-8.0875 -33.21262,-16.5612 -28.13197,-21.6418 1.78854,-1.7886 2.64187,-1.8835 4.80207,-0.5345 1.44486,0.9024 4.88516,1.6275 7.64511,1.6114 5.40005,-0.032 16.35139,-4.3539 16.35139,-6.4537 0,-2.243 -8.2677,-8.3358 -15.87907,-11.7019 -7.82847,-3.4621 -9.62431,-5.1538 -8.52155,-8.0276 1.09938,-2.8649 5.17798,-2.1032 14.76727,2.758 9.33055,4.7301 13.54235,8.041 17.06195,13.4127 3.1779,4.8501 -0.156,10.2124 -8.6106,13.8495 -3.6551,1.5724 -7.4044,2.8589 -8.33181,2.8589 -3.30843,0 0.88331,2.5517 9.51761,5.7937 8.6582,3.251 11.5756,6.6296 7.7941,9.0261 -2.2015,1.3952 -1.947,1.4237 -8.4645,-0.9508 z"
         inkscape:label="pardon" />
      <path
         id="path1"
         style="display:inline;fill:#000000"
         d="m 1661.0556,469.12209 c 0,-1.42017 4.1961,-6.53349 7.1372,-12.32491 2.9412,-5.79142 4.3983,0.80217 2.8618,4.22633 -1.5366,3.42416 -5.3892,8.68747 -7.2026,9.61501 -1.1406,0.5834 -2.7941,-0.21631 -2.7964,-1.51643 z m 21.3594,-6.8594 c 0.2764,1.93233 -0.7261,3.64984 -3,5.13973 -3.7466,2.4549 -4.4321,6.09363 -1.5919,8.45076 1.3867,1.15084 2.2237,1.03033 3.4966,-0.50341 1.9238,-2.31799 6.1173,-2.67268 7.3832,-0.62447 0.4732,0.76558 -0.1473,2.92973 -1.3788,4.8092 -1.5303,2.33563 -1.8061,3.85018 -0.8712,4.78508 2.2282,2.22823 5.244,0.16821 8.1806,-5.58795 3.3987,-6.66202 8.0332,-7.58413 8.0332,-1.59835 0,4.51157 -6.7542,14.35625 -11.257,16.40788 -3.7629,1.71449 -5.6853,0.58576 -16.1221,-9.46621 -3.8498,-3.70789 -8.2283,-5.99827 -9.1436,-6.74162 -1.0622,-0.86267 -1.462,-5.25351 1.2991,-7.82185 10.049,-11.48519 14.2303,-12.43456 14.9719,-7.24879 z m -174.856,257.40398 c -7.1001,-13.26532 -8.0492,-15.66172 -7.717,-19.48467 0.1898,-2.18397 2.6431,-1.7999 20.158,3.15572 14.2455,4.03059 17.4127,6.02016 14.7298,9.25289 -1.2228,1.47334 -3.0837,1.83867 -6.5521,1.28629 -4.0593,-0.64647 -5.3755,-0.20508 -8.1218,2.7237 -3.2752,3.49289 -3.2758,3.4982 -0.8084,8.07983 2.0195,3.74997 2.1616,4.95498 0.7808,6.61878 -0.9285,1.11877 -2.4681,2.03412 -3.4213,2.03412 -0.9532,0 -5.0248,-6.15 -9.048,-13.66666 z m 7.1077,-9 c 0,-0.73334 -0.9354,-1.33334 -2.0787,-1.33334 -1.1433,0 -1.7079,0.6 -1.2547,1.33334 0.4533,0.73333 1.3887,1.33333 2.0787,1.33333 0.6901,0 1.2547,-0.6 1.2547,-1.33333 z m 9.9516,-14.66609 c -8.4934,-4.20426 -14.2909,-9.60673 -13.2358,-12.33391 1.3351,-3.4506 4.3048,-2.87172 11.8533,2.3105 7.3578,5.05135 15.4309,7.50991 15.4309,4.6993 0,-1.69106 -7.3517,-9.05239 -14.19,-14.20857 -3.648,-2.75061 -3.7069,-2.96853 -1.4718,-5.43832 1.2806,-1.41509 2.3284,-3.44298 2.3284,-4.50642 0,-1.06344 3.898,-5.79682 8.6621,-10.51863 8.066,-7.99426 8.8142,-8.43298 10.8724,-6.37478 2.0568,2.05674 2.0571,2.44421 0,5.5767 -1.2131,1.85152 -2.2057,3.61427 -2.2057,3.91722 0,0.30296 3.324,2.56541 7.3867,5.02768 7.4429,4.51086 10.3922,9.26968 7.5231,12.13878 -1.0154,1.0154 -4.1222,-0.41255 -10.7488,-4.94028 -9.1607,-6.25921 -13.4944,-7.13435 -13.4944,-2.72503 0,1.12302 -0.5608,2.04185 -1.2463,2.04185 -0.6856,0 1.9719,3.21836 5.9055,7.15192 8.3013,8.30132 10.9346,15.89764 6.6078,19.06152 -3.5968,2.63 -13.7994,2.18092 -19.982,-0.87953 z m 36.5601,-39.82947 c -11.639,-7.78468 -14.9161,-11.08692 -14.28,-14.38993 0.7666,-3.98044 4.8401,-3.58112 9.3365,0.91522 l 4.2268,4.22682 2.3222,-3.07858 c 2.2752,-3.01634 2.2368,-3.1291 -1.8975,-5.57766 -5.3156,-3.14808 -7.5729,-5.99732 -6.6522,-8.39658 0.7473,-1.94742 6.5449,-2.62681 7.3214,-0.85796 0.2444,0.55684 3.9163,3.09691 8.1598,5.6446 9.7456,5.85101 14.6455,10.85094 13.5167,13.79253 -1.1818,3.07987 -4.4743,2.76757 -8.2536,-0.7829 -3.1386,-2.94851 -3.2259,-2.95557 -5.086,-0.41183 -2.6674,3.64796 -2.4744,4.13842 2.8697,7.29154 3.0972,1.82736 4.6075,3.62164 4.3197,5.13171 -0.8264,4.33633 -5.8247,3.23412 -15.9035,-3.50698 z M 1578,631.09138 c -4.493,-2.39832 -14.1498,-9.6341 -15.6462,-11.72359 -2.4371,-3.40281 -0.9066,-8.52486 3.7756,-12.63585 7.9574,-6.98675 13.256,-2.9598 6.5662,4.99046 l -3.4314,4.07799 2.7866,1.95178 c 2.1991,1.54029 3.6079,1.64173 6.6826,0.48118 5.0725,-1.91465 7.5795,0.11159 5.3326,4.30995 -1.2462,2.3286 -1.1091,2.9851 0.7744,3.70787 1.5984,0.61335 3.3854,-0.43531 5.9243,-3.47653 2.2473,-2.69189 4.5716,-4.17455 6.0868,-3.88275 4.1552,0.80022 3.6188,4.90443 -1.2813,9.8046 -5.2626,5.2626 -10.7872,6.01563 -17.5702,2.39489 z m 11.3333,-23.14781 c -6.2333,-3.63205 -12.0592,-7.65872 -12.9465,-8.94816 -2.4016,-3.49027 -0.061,-6.01215 5.8096,-6.25886 2.8253,-0.11875 7.798,-0.33304 11.0504,-0.47622 l 5.9135,-0.26033 -9.2468,-6.35125 c -9.3372,-6.41332 -10.948,-8.95172 -7.1862,-11.3246 1.5614,-0.98491 5.0693,0.67578 14.4793,6.85468 6.8302,4.48498 12.9318,8.1545 13.5591,8.1545 0.6273,0 1.7383,1.11712 2.4691,2.48248 2.4573,4.59154 -1.168,7.18498 -11.269,8.06156 l -9.0952,0.7893 6.9948,4.33842 c 4.8136,2.98553 6.8565,5.06447 6.5511,6.66667 -0.7765,4.07407 -5.4393,3.05646 -17.0832,-3.72819 z m 23.5943,-32.91269 -9.0723,-6.18701 -4.0599,2.39822 c -3.7278,2.20205 -4.235,2.22307 -6.2011,0.257 -1.966,-1.96607 -1.7645,-2.52983 2.4635,-6.89204 5.4504,-5.62343 14.8669,-10.63832 17.8361,-9.49892 2.9378,1.12733 2.6265,4.37616 -0.6385,6.66303 -2.6422,1.85067 -2.4308,2.14119 5.6667,7.78973 5.4803,3.82286 8.4112,6.78003 8.4112,8.48657 0,4.50425 -4.8741,3.48361 -14.4057,-3.01658 z m 12.4542,-19.79427 c -12.2749,-5.75738 -13.5855,-7.29157 -10.1928,-11.93144 1.645,-2.24955 2.1129,-2.31637 4.1191,-0.58817 1.2449,1.07231 6.5598,4.04967 11.811,6.61633 7.1134,3.47691 9.6562,5.43151 9.9736,7.66667 0.6179,4.35067 -3.7115,3.86473 -15.7109,-1.76339 z m 10.2114,-11.05354 c -11.3267,-7.46829 -12.7991,-22.84974 -2.1873,-22.84974 5.2745,0 6.7214,3.55346 2.6863,6.59716 l -2.9908,2.25593 3.5678,4.24012 c 3.5937,4.27081 10.1698,5.86409 11.9975,2.90679 0.4532,-0.73333 2.2886,-1.33333 4.0787,-1.33333 2.5737,0 3.2546,0.69022 3.2546,3.29909 0,6.59525 -13.068,9.72282 -20.4068,4.88398 z m 23.0862,-19.0341 c -1.8263,-1.51927 -6.064,-4.1525 -9.4171,-5.85163 -3.3531,-1.69912 -6.8191,-3.96007 -7.7024,-5.02433 -3.1793,-3.83078 1.9336,-9.25565 5.429,-5.76027 0.9531,0.95302 3.2204,2.48547 5.0386,3.40545 9.1938,4.6519 15.9674,10.20056 15.9699,13.08181 0,3.90553 -4.7116,3.98091 -9.318,0.14897 z m 5.5807,-19.35358 -9.7399,-6.17957 -2.0024,2.85876 c -1.1013,1.57231 -3.1041,2.85875 -4.4508,2.85875 -4.4308,0 -4.2247,-3.97716 0.5812,-11.21763 5.8143,-8.75947 9.1452,-11.81275 12.2373,-11.21726 3.2663,0.62903 3.8941,4.90418 1.028,6.99997 -3.1909,2.33318 -1.8341,3.98197 8.9809,10.91426 6.4558,4.13801 9.15,6.64596 8.8472,8.23533 -0.7739,4.06122 -5.5282,3.06236 -15.4815,-3.25261 z"
         inkscape:label="authenticite" />
      <path
         id="path174"
         style="display:inline;fill:#000000"
         d="m 2132.0121,1586.0146 c -1.0814,-1.303 -1.3256,-3.709 -0.7106,-7 1.172,-6.2716 2.8511,-8.3479 6.7506,-8.3479 3.8338,0 4.7498,2.3595 2.5881,6.6666 -0.9201,1.8334 -2.3277,4.9834 -3.128,7 -1.64,4.1327 -3.0962,4.5779 -5.5001,1.6813 z m 64.933,-5.5139 c -0.5198,-0.5198 -0.9451,-4.1165 -0.9451,-7.9926 v -7.0475 l -8.3333,-0.397 -8.3334,-0.3969 0.1385,-4.6667 c 0.076,-2.5667 2.4761,-9.4667 5.3333,-15.3333 4.333,-8.897 5.775,-10.734 8.6912,-11.0722 4.1742,-0.484 6.4709,3.4903 3.3399,5.7798 -1.8758,1.3716 -8.8362,15.6489 -8.8362,18.1249 0,0.6421 2.1,1.1675 4.6667,1.1675 4.5334,0 4.6666,-0.1481 4.6666,-5.1857 0,-6.2497 3.5952,-11.3976 7.0374,-10.0767 1.962,0.7528 2.2095,1.9395 1.508,7.2279 -0.482,3.634 -0.2362,7.4541 0.5776,8.9747 1.0555,1.9723 0.944,3.3226 -0.4375,5.2949 -1.0198,1.4561 -2.0413,5.5989 -2.2699,9.2061 -0.3435,5.4208 -0.8878,6.6264 -3.1371,6.9483 -1.4968,0.2143 -3.1468,-0.036 -3.6667,-0.5555 z m -102.6118,-4.4663 c -4.1325,-3.2624 -4.6076,-5.5936 -1.6416,-8.0552 1.6508,-1.3701 2.4709,-1.277 4.4383,0.5035 2.6611,2.4082 10.234,2.9585 11.544,0.8387 1.6429,-2.6582 -1.0161,-6.9337 -5.4691,-8.7943 -2.4961,-1.0429 -4.5382,-2.559 -4.5382,-3.369 0,-0.81 1.8,-3.5228 4,-6.0285 4.3067,-4.9051 5.4001,-11.1296 1.955,-11.1296 -1.1247,0 -3.284,2.1 -4.7984,4.6667 -2.9078,4.9284 -6.9724,6.1406 -8.3707,2.4966 -1.1611,-3.0258 3.1672,-9.9095 8.4833,-13.4921 5.428,-3.6579 5.536,-3.6615 9.7819,-0.3216 4.4726,3.5181 5.5342,8.9134 3.128,15.8975 -1.8574,5.3911 -1.8001,5.8597 1.2712,10.3854 6.4324,9.4788 2.2249,17.5526 -9.7402,18.6902 -5.1225,0.487 -7.098,0.037 -10.0435,-2.2883 z m 164.8933,-1.2153 c -2.2587,-1.3774 -5.1716,-4.7484 -6.4731,-7.4912 -3.0206,-6.3653 -1.3294,-10.6662 5.28,-13.4278 5.1003,-2.1311 5.0023,-4.0728 -0.4548,-9.0114 -1.4676,-1.3282 -3.4118,-4.2097 -4.3205,-6.4033 -1.4459,-3.4907 -1.313,-4.4356 1.0647,-7.5703 3.4717,-4.5771 8.5135,-4.4696 18.0177,0.3842 12.7825,6.5279 14.9494,12.6163 7.1186,20.0016 -3.2309,3.0472 -4.1983,4.8234 -3.3537,6.1575 0.6528,1.0312 1.1962,4.4522 1.2074,7.6022 0.038,10.5676 -8.8742,15.376 -18.0863,9.7585 z m 10.7574,-8.1021 c 0.6968,-2.1953 -1.1205,-8.0503 -2.4986,-8.0503 -1.7249,0 -8.8187,3.1203 -8.8187,3.879 0,2.0396 5.5695,6.7876 7.9621,6.7876 1.3886,0 2.8985,-1.1773 3.3552,-2.6163 z m 3.437,-20.0972 c 1.4184,-0.7592 2.579,-2.1338 2.579,-3.0548 0,-1.7501 -14.3463,-9.6631 -15.4743,-8.5352 -0.5564,0.5564 8.7311,12.6501 9.8953,12.8852 0.2315,0.047 1.5815,-0.5361 3,-1.2952 z m -197.7514,18.4551 c -0.3314,-0.9579 -0.3053,-5.6416 0.058,-10.4082 l 0.6604,-8.6667 -6.8999,6.4235 c -6.8013,6.3318 -11.062,7.5991 -11.8468,3.524 -0.4951,-2.5711 21.2009,-25.2808 24.1525,-25.2808 2.5083,0 2.4587,-0.3182 2.1828,14 -0.3106,16.1168 -1.4586,21.2539 -4.8584,21.7415 -1.5653,0.2246 -3.1171,-0.3754 -3.4485,-1.3333 z m 141.8659,-10.2551 c -0.9888,-0.6266 -1.5701,-2.2674 -1.2917,-3.6462 0.4302,-2.1303 1.6658,-2.4828 8.2254,-2.3461 8.1858,0.1706 11.0598,1.6689 9.7497,5.0829 -0.5895,1.5362 -2.6667,2.0842 -7.8437,2.0692 -3.873,-0.011 -7.8509,-0.5331 -8.8397,-1.1598 z m -3.0926,-74.4865 c -0.8535,-2.0987 -1.446,-10.9662 -1.3855,-20.7365 0.091,-14.6744 0.5132,-17.9117 3.0099,-23.0691 3.687,-7.6164 7.8127,-10.4304 13.6787,-9.33 7.6762,1.4401 16.8179,13.4913 14.8758,19.6103 -1.1124,3.5048 -7.0967,7.8587 -10.8016,7.8587 -1.7344,0 -3.1535,0.2653 -3.1535,0.5896 0,0.3243 2.4494,4.4963 5.4431,9.2709 5.5777,8.8959 6.2624,13.1078 2.2562,13.8793 -1.5725,0.3029 -4.2308,-2.5602 -8.6513,-9.318 l -6.3814,-9.7552 -0.3391,9.3334 c -0.1865,5.1333 -0.6479,10.6833 -1.0254,12.3333 -0.9904,4.3295 -5.6624,3.9157 -7.5259,-0.6667 z m 18.7916,-33.503 c 4.5782,-1.2794 4.732,-3.2066 0.6436,-8.0653 -4.5161,-5.3671 -9.4035,-5.2926 -8.8433,0.1348 0.2024,1.9616 -0.2476,3.947 -1,4.412 -0.7525,0.4651 -1.3681,1.7102 -1.3681,2.7669 0,2.0455 4.7331,2.3821 10.5678,0.7516 z m -156.558,34.2632 c -0.3548,-0.9681 -0.8021,-9.4645 -0.9941,-18.8809 l -0.3491,-17.1207 -8.4481,12.7809 c -9.8015,14.8283 -13.9322,18.731 -17.6944,16.7176 -3.4077,-1.8237 -3.2658,-6.6461 0.2224,-7.5583 1.6882,-0.4415 7.6018,-8.0999 15.3469,-19.8752 9.1498,-13.9108 13.32,-19.1569 15.2281,-19.1569 3.7803,0 4.1515,2.9899 3.7245,30 -0.3755,23.7572 -0.4098,24.0043 -3.3853,24.4268 -1.6533,0.2348 -3.2962,-0.3652 -3.6509,-1.3333 z m 96.9126,-2.4594 c -5.109,-3.1149 -9.5169,-11.7489 -9.5598,-18.7254 -0.077,-12.4337 6.7358,-23.8774 15.5276,-26.0839 8.9529,-2.2471 22.9274,7.7578 25.8522,18.5085 2.4047,8.8387 -2.8407,21.327 -11.0636,26.3406 -5.7346,3.4964 -14.9854,3.4787 -20.7564,-0.04 z m 17.8783,-7.2912 c 3.0061,-1.9426 7.1993,-9.6759 7.1993,-13.2773 0,-3.0096 -3.7689,-10.0656 -5.3764,-10.0656 -0.7194,0 -2.6122,-1.5 -4.2062,-3.3333 -7.4427,-8.5599 -17.1586,0.1883 -17.0294,15.3333 0.1014,11.8925 9.7962,17.5572 19.4127,11.3429 z m 94.1715,7.096 c -2.0606,-2.0606 -2.2813,-36.0805 -0.2587,-39.8599 2.9986,-5.6029 10.1629,-1.5377 8.9032,5.0519 -0.8104,4.2396 1.8266,8.6078 10.9221,18.0925 l 6.1278,6.3901 0.6667,-17.7234 0.6667,-17.7234 h 3.3333 3.3333 v 20.4431 c 0,18.2771 -0.2587,20.632 -2.4416,22.2262 -3.8007,2.7756 -9.1916,0.1271 -18.1536,-8.9187 l -7.9072,-7.9811 0.2512,10.4057 c 0.2023,8.3793 -0.1437,10.4866 -1.7765,10.8209 -1.1153,0.2282 -2.7653,-0.3225 -3.6667,-1.2239 z M 2263,1476.3591 c -1.9474,-0.6793 -2.396,-35.8108 -0.4955,-38.8091 0.6217,-0.9808 2.5626,-1.5808 4.313,-1.3333 2.6348,0.3725 3.1285,1.1383 2.8686,4.45 -0.1726,2.2 -0.323,9.9784 -0.3341,17.2853 -0.026,17.094 -1.11,20.2356 -6.352,18.4071 z m 129.2667,-3.2924 c -0.9329,-0.9329 -1.6169,-5.5196 -1.6406,-11 -0.032,-7.3101 -0.3566,-8.8563 -1.4623,-6.9545 -1.0137,1.7434 -2.3417,2.2146 -4.6262,1.6412 -2.6771,-0.6719 -3.2055,-0.3065 -3.2117,2.2212 -0.016,6.4111 -2.7121,13.0254 -5.3099,13.0254 -1.3889,0 -2.7881,-0.45 -3.1092,-1 -0.3212,-0.55 -0.1863,-9.3132 0.2998,-19.4739 0.7625,-15.9393 1.2284,-18.7258 3.3959,-20.3107 4.2393,-3.0999 5.9022,-0.2179 5.0835,8.8106 -0.6299,6.9474 -0.4096,8.0146 1.798,8.7098 1.3838,0.4357 3.416,1.2618 4.516,1.8357 1.6989,0.8865 1.932,-0.2479 1.5483,-7.5349 -0.2485,-4.7181 -0.1036,-9.9653 0.3218,-11.6604 0.839,-3.343 4.5554,-5.4841 6.3697,-3.6698 1.8254,1.8255 2.6689,43.0621 0.9238,45.1648 -1.8359,2.2121 -2.8402,2.2522 -4.8969,0.1955 z m -249.611,-2.7021 c -10.7405,-7.238 -12.1298,-23.8709 -2.7753,-33.2254 6.7459,-6.7459 11.1089,-7.6708 18.2684,-3.8727 6.1463,3.2606 8.0349,6.1023 5.8252,8.7649 -1.6308,1.9649 -5.8659,1.1754 -8.0936,-1.5088 -4.5461,-5.4778 -13.1087,0.9729 -14.2053,10.7016 -0.8826,7.8304 1.7428,11.9151 9.2711,14.4245 4.0854,1.3618 5.7205,2.6373 5.7205,4.4624 0,3.9961 -8.2362,4.1451 -14.011,0.2535 z m 200.4784,-1.7363 c -0.4302,-1.1211 -0.5347,-7.6973 -0.2322,-14.6138 l 0.5501,-12.5754 -9.3785,-0.3862 c -8.0448,-0.3313 -9.4486,-0.7529 -9.871,-2.9648 -0.6985,-3.657 3.3992,-6.3951 6.826,-4.5611 3.0087,1.6102 11.7799,0.5731 15.6631,-1.852 2.0153,-1.2586 2.9303,-1.2531 4.2085,0.025 0.8983,0.8983 3.1632,1.6424 5.0332,1.6537 8.6943,0.052 9.3128,6.9029 0.7205,7.9795 l -5.3205,0.6667 -0.9704,12.6279 c -0.5337,6.9454 -1.2648,13.3954 -1.6248,14.3334 -0.9069,2.3633 -4.6548,2.1406 -5.604,-0.333 z m 122.2423,-0.6017 c -1.3809,-0.8534 -1.4135,-3.6227 -0.1674,-14.21 0.8512,-7.2324 1.6774,-16.4499 1.836,-20.4833 0.2688,-6.8366 0.5119,-7.3333 3.5896,-7.3333 2.5154,0 3.5837,0.9521 4.4879,4 1.8916,6.3756 7.5232,18.4424 10.2838,22.035 l 2.5344,3.2983 0.03,-10.2465 c 0.016,-5.6356 -0.5951,-11.8895 -1.3585,-13.8976 -2.4224,-6.3713 4.8421,-9.713 7.4336,-3.4194 1.4069,3.4166 2.4175,26.0108 1.4049,31.4086 -1.0372,5.5288 -4.8078,8.2828 -8.5777,6.2652 -1.3534,-0.7243 -4.8034,-4.7199 -7.6667,-8.8791 l -5.206,-7.5621 -0.9345,6.4806 c -1.7789,12.3356 -3.4953,15.1356 -7.6891,12.5436 z m -53.947,-1.5998 c -0.3073,-0.9681 -0.9365,-8.0872 -1.3982,-15.8203 -0.9348,-15.6545 0.2808,-21.2732 4.6025,-21.2732 1.4848,0 2.7098,0.45 2.7221,1 0.8221,36.5633 0.7959,36.9785 -2.3618,37.4269 -1.6532,0.2347 -3.2573,-0.3653 -3.5646,-1.3334 z m 20.2999,-2.001 c -1.2489,-0.3285 -2.6452,-1.7773 -3.103,-3.2195 -0.9428,-2.9706 4.3907,-30.3055 6.4192,-32.8987 0.7861,-1.0051 3.0088,-1.4366 5.4725,-1.0626 14.6344,2.222 14.3328,2.1099 13.8981,5.1643 -0.3456,2.4284 -1.4951,3.037 -6.7822,3.5907 -3.5013,0.3667 -6.3513,1.1167 -6.3333,1.6667 0.018,0.55 0.033,1.6 0.033,2.3333 0,0.7333 1.4266,1.3333 3.1701,1.3333 1.7435,0 3.8643,0.8365 4.7127,1.8588 2.2727,2.7384 -1.6923,6.1412 -7.1558,6.1412 -4.1148,0 -5.9345,2.0493 -6.0421,6.8043 -0.01,0.4424 2.9717,0.517 6.626,0.1659 5.4055,-0.5194 6.8068,-0.2151 7.5157,1.6324 0.4859,1.2661 0.053,3.0396 -0.9776,4.0083 -1.9535,1.8356 -13.6083,3.4927 -17.453,2.4816 z M 2507,1461.1792 c -0.9167,-0.9419 -1.6667,-2.7925 -1.6667,-4.1125 0,-1.9556 1.1111,-2.4 6,-2.4 5.3392,0 6,-0.3315 6,-3.0098 0,-1.7402 -3.0935,-6.5569 -7.3333,-11.4184 -7.5987,-8.7128 -9.6059,-15.0811 -5.2769,-16.7423 2.9471,-1.1309 14.1384,2.1266 14.9975,4.3655 0.3982,1.0378 -0.5889,2.9502 -2.1936,4.2496 -1.9253,1.559 -2.4101,2.6763 -1.4253,3.2849 2.949,1.8226 9.2316,13.1995 9.2316,16.7171 0,5.6788 -3.9293,9.3926 -10.7192,10.1314 -3.8563,0.4196 -6.5335,0.045 -7.6141,-1.0655 z"
         inkscape:label="verset" />
    </g>
    <path
       id="path173"
       style="display:inline;fill:#000000"
       d="m 1385.9264,1700.7986 c -1.4669,-1.0274 -5.8164,-7.1886 -9.6657,-13.6915 -8.9067,-15.0469 -22.7402,-30.2187 -36.0687,-39.5582 -14.0552,-9.8488 -17.0046,-17.6281 -9.3774,-24.7339 6.8422,-6.3744 12.8689,-4.293 30.8924,10.6694 15.8855,13.1874 30.4601,31.0307 38.7751,47.4713 5.2572,10.3945 4.3991,15.8078 -3.1221,19.6972 -4.8498,2.5079 -8.0038,2.5481 -11.4336,0.1457 z m 190.9369,-142.4653 c -1.8069,-1.65 -4.3158,-6.3 -5.5754,-10.3333 -4.6986,-15.0459 -13.708,-26.712 -33.9546,-43.9669 -18.8332,-16.0505 -22.0341,-22.0591 -15.9032,-29.8533 3.9754,-5.0539 10.8405,-4.7796 19.3413,0.773 9.2147,6.0189 36.392,33.4692 42.6081,43.036 2.8549,4.3939 6.6095,11.5013 8.3435,15.7943 5.8816,14.5613 5.5828,22.117 -1.0094,25.526 -5.4923,2.8402 -10.0207,2.5211 -13.8503,-0.9758 z m 163.5165,-86.9683 c -4.9245,-2.1411 -5.3213,-3.4083 -6.1511,-19.6444 -0.7282,-14.2482 -5.4758,-25.4969 -15.142,-35.877 -7.5214,-8.0768 -42.3762,-38.5103 -44.1051,-38.5103 -2.5069,0 -7.1226,-6.5021 -7.8655,-11.0803 -1.4777,-9.1063 9.8339,-16.073 18.5358,-11.4159 5.4379,2.9104 44.7168,37.0666 52.2069,45.3984 4.1873,4.6578 10.0396,13.3523 13.0762,19.427 4.837,9.676 5.6561,12.677 6.8241,25.004 1.6931,17.8695 0.2176,23.977 -6.4674,26.7702 -5.4535,2.2786 -5.5073,2.2782 -10.9119,-0.072 z m 104.0538,-355.0688 c -0.8615,-0.548 -10.0519,-9.2289 -20.423,-19.2909 -29.443,-28.5654 -52.9617,-46.5372 -82.4705,-63.0197 -7.4759,-4.1757 -14.1808,-8.6913 -14.8997,-10.0346 -2.575,-4.8114 -1.501,-10.6289 2.7464,-14.8762 3.4027,-3.4027 4.7404,-3.9178 8.3333,-3.2084 11.359,2.2427 39.896,19.8098 65.6132,40.3911 18.5237,14.8243 54.7195,50.0633 56.4132,54.9218 2.943,8.4422 -8.3223,19.5633 -15.3129,15.1169 z"
       inkscape:label="hand_details" />
    <path
       style="display:inline;fill:#000000"
       d="M 1579.4849,562.77595 C 1564.934,581.27922 1479.3206,697.95522 1472.4805,708 c -8.3426,12.25102 -8.8873,10.57643 7.1865,22.09312 41.6896,29.87025 72.8821,60.3374 83.5513,81.6083 8.0413,16.03176 20.548,49.93527 26.019,70.53298 1.3696,5.15628 1.9943,5.73383 8.4541,7.81541 18.8334,6.06881 55.3044,27.00569 70.4404,40.43772 4.7999,4.25956 5.7349,5.89053 5.7349,10.00391 0,3.54918 -0.9901,5.90471 -3.5637,8.47826 -6.2946,6.29463 -10.0951,5.15205 -29.6363,-8.90997 -15.2056,-10.94202 -36.2216,-22.7264 -40.5298,-22.7264 -2.0872,0 -2.0327,0.35301 3.7626,24.34048 12.7123,52.61769 37.4402,132.25349 52.5345,169.18669 23.7917,58.2139 40.8095,85.5661 116.8479,187.8062 40.6842,54.7034 47.278,63.8781 60.3703,84 34.1853,52.5402 56.4048,103.5439 75.5787,173.4869 3.6395,13.2765 6.8687,24.3904 7.1759,24.6977 1.5577,1.5577 9.5501,-31.8454 14.2408,-59.518 6.9484,-40.9918 9.3241,-63.0398 9.3385,-86.6666 0.02,-33.8404 -2.8753,-55.4206 -14.6964,-109.5237 -13.1418,-60.1472 -22.0079,-142.7812 -18.1883,-169.5198 1.4956,-10.4705 5.3277,-14.8959 12.8986,-14.8959 4.4065,0 6.2639,0.7528 8.6225,3.4949 2.9446,3.4232 2.9928,4.0098 2.3544,28.6363 -0.4761,18.3658 -0.047,30.7007 1.5911,45.7692 1.2336,11.3452 2.4415,20.8262 2.6843,21.069 0.2427,0.2428 2.3815,-4.2397 4.7529,-9.961 48.0341,-115.8925 71.9513,-162.0405 123.052,-237.42822 25.5603,-37.70862 39.1939,-53.63822 99.9959,-116.83579 39.9493,-41.52325 46.7088,-49.34136 96.3514,-111.44062 68.5759,-85.78346 83.0535,-101.38141 148.8887,-160.41092 10.3851,-9.3115 13.78,-11.62015 17.0877,-11.62015 5.8567,0 9.2227,2.19008 11.4094,7.42362 1.5571,3.72658 1.5967,5.23329 0.2205,8.39 -0.9226,2.11623 -12.1775,13.31947 -25.0108,24.89609 -49.6028,44.74541 -71.6946,68.93794 -132.6015,145.2106 -48.7184,61.0093 -61.2841,75.5013 -104.1551,120.12222 -66.1372,68.83681 -75.6581,80.76913 -117.5251,147.29077 -19.6173,31.1697 -36.1229,60.3718 -47.8553,84.6667 -17.0971,35.4039 -55.7546,127.8425 -63.0347,150.7296 l -2.9888,9.3963 6.0594,31.5655 c 11.8015,61.477 13.3,74.4146 13.3171,114.9753 l 0.015,36 -5.6532,34.6666 c -8.7474,53.641 -11.8056,65.6168 -27.3743,107.1976 l -4.6919,12.5309 3.2382,12.4631 c 4.7119,18.1348 10.7983,32.8545 29.9677,72.4751 35.1128,72.5734 38.7612,86.996 34.572,136.6667 -3.1013,36.7722 -11.8326,76.2612 -22.2582,100.6666 -9.0473,21.179 -17.0894,32.2679 -40.0971,55.2876 -0.2194,0.2196 -0.6024,9.0197 -0.8511,19.5558 -0.7072,29.9629 -6.9396,54.9524 -20.407,81.8233 -10.297,20.5453 -20.8921,34.4051 -47.6763,62.3667 -56.216,58.6872 -68.2431,72.8013 -75.3354,88.4085 -3.9173,8.6204 -11.1564,17.8915 -13.9701,17.8915 -1.0888,0 -3.4853,7.5164 -6.6954,21 -10.927,45.8974 -29.3698,88.6859 -55.144,127.9378 -4.3481,6.6219 -14.8998,21.8049 -23.4481,33.74 -24.1903,33.7746 -33.6078,51.1408 -47.7155,87.9888 -5.4019,14.1093 -6.0808,17.8208 -9.0369,49.4058 -3.6039,38.5055 -15.3912,61.6896 -35.1168,69.0699 -6.1777,2.3113 -10.4959,2.8495 -22.5878,2.8148 -13.9909,-0.04 -16.022,-0.4043 -31.6596,-5.6756 h 2e-4 c -35.1894,-11.862 -54.9093,-29.2535 -71.3755,-62.9482 -11.6414,-23.8215 -18.2708,-46.283 -22.0377,-74.6667 -2.2998,-17.3292 -1.9451,-65.1335 0.701,-94.4662 1.2469,-13.8231 2.0318,-25.3682 1.7442,-25.6558 -0.2876,-0.2876 -4.0641,4.7222 -8.3922,11.1329 -9.2317,13.6738 -29.9852,35.0278 -41.0162,42.203 -14.1655,9.2141 -33.5063,15.3791 -48.406,15.4296 -9.9627,0.034 -29.1886,-3.6071 -38.1404,-7.2229 -29.97,-12.1054 -49.9879,-36.4201 -61.8947,-75.1799 -1.9555,-6.3657 -3.7535,-11.8156 -3.9955,-12.1109 -0.242,-0.2953 -1.7934,1.2047 -3.4474,3.3334 -11.5196,14.8247 -22.191,21.7405 -43.0796,27.9185 -16.1247,4.7691 -37.9878,5.9532 -49.3442,2.6727 -29.6463,-8.5641 -51.3022,-31.7492 -62.3201,-66.721 -1.8483,-5.8667 -3.7914,-13.5464 -4.318,-17.0661 -1.2329,-8.2414 -2.8343,-9.6885 -11.9002,-10.754 -9.0148,-1.0595 -30.8799,-7.8934 -40.0679,-12.5232 -32.9903,-16.6234 -50.87627,-43.5537 -58.66255,-88.3261 -1.66203,-9.557 -4.61871,-46.9243 -4.65886,-58.8801 -0.0105,-3.1387 -0.66771,-3.6568 -5.67859,-4.4771 -10.21349,-1.672 -29.46181,-8.5351 -40.33194,-14.3806 l -10.66526,-5.7354 -10.58749,11.185 c -11.27313,11.9093 -35.79001,31.1652 -50.96086,40.0255 -32.91123,19.2212 -70.20731,26.1468 -94.73851,17.5924 -31.19283,-10.8775 -44.29347,-51.2934 -33.07571,-102.0396 1.12917,-5.1081 3.82036,-19.1874 5.98044,-31.2874 4.71685,-26.4222 7.33451,-39.1668 15.22906,-74.1457 6.82347,-30.2332 10.48161,-53.8201 13.4187,-86.521 2.34982,-26.1623 4.7226,-73.5016 4.72791,-94.3265 l 0.004,-14.3265 -6.00072,-2.8206 c -3.30039,-1.5514 -8.95662,-6.0549 -12.56939,-10.0079 -15.73053,-17.2117 -23.53811,-38.9698 -32.00281,-89.1851 -2.2251,-13.2 -5.52814,-30.9 -7.3401,-39.3334 -9.35706,-43.5501 -11.34498,-53.7466 -12.83525,-65.8352 -1.85105,-15.015 -1.03225,-33.7212 1.99153,-45.4981 3.61197,-14.0678 18.19446,-41.1649 31.71369,-58.9302 28.19757,-37.0537 39.76124,-49.9708 84.94895,-94.892 50.308,-50.0113 56.91736,-55.7296 101.63237,-87.9303 l 30.20494,-21.7516 2.75998,-14.9146 c 3.27874,-17.718 4.04024,-23.8638 10.2735,-82.9146 3.14141,-29.7603 5.0371,-55.2288 5.51835,-74.1391 l 0.73307,-28.8057 -9.79856,-10.5276 c -5.38921,-5.7902 -25.44512,-26.4276 -44.56869,-45.861 C 872.89506,988.98819 861.86941,976.95846 813.95236,922 775.74759,878.18104 763.32765,864.53334 736.29566,836.66667 697.18292,796.34621 683.9892,785.04295 619.13905,736.29682 597.54724,720.06683 572.7192,700.00136 560.6709,689.04415 c -34.72297,-31.57844 -47.29383,-42.07873 -62.93339,-52.56751 -17.02325,-11.41675 -25.89449,-15.25977 -34.47637,-14.93516 -11.06446,0.4185 -17.58191,-9.86976 -11.30633,-17.84786 6.66384,-8.4717 19.91337,-8.45241 37.60474,0.0547 22.29583,10.72127 39.56528,23.80809 77.77378,58.93709 24.00146,22.067 31.15454,27.8558 76.03279,61.53131 73.22163,54.94368 105.58716,86.28568 195.981,189.78325 52.98823,60.66955 60.66682,69.01378 101.22512,110.00003 37.82453,38.2236 45.8691,47.1921 56.61608,63.1184 15.70158,23.2688 23.65738,44.8837 36.25338,98.4959 9.3251,39.6905 9.3387,40.803 0.5441,44.4776 -5.2796,2.2059 -10.1004,1.4648 -13.2726,-2.0404 -1.2274,-1.3563 -4.7487,-14.0327 -8.2075,-29.5468 -6.2518,-28.0413 -16.31836,-60.9895 -22.12423,-72.4136 l -3.31332,-6.5195 -0.9135,11.8809 c -3.701,48.135 -14.17328,138.1349 -18.1381,155.8808 -10.92854,48.9145 -36.23251,94.5828 -89.39204,161.3334 -7.00823,8.8 -14.0889,17.9251 -15.73482,20.278 l -2.99258,4.2781 8.96233,11.7219 c 16.48752,21.5643 37.46742,54.6788 41.90373,66.1405 7.26244,18.7635 9.63606,33.4609 8.76102,54.2481 -0.89076,21.1608 -3.88796,36.158 -12.23106,61.2011 -14.12633,42.4024 -41.47588,86.3279 -66.24905,106.4012 -15.1227,12.2537 -35.04524,22.9014 -47.07119,25.1575 l -4.39214,0.8239 -0.76575,14.8748 c -0.42116,8.1812 -1.10546,23.5749 -1.52067,34.2082 -1.68555,43.167 -5.99642,87.2166 -12.04746,123.1042 -3.53145,20.9444 -4.67313,26.3057 -12.07563,56.7062 -2.56382,10.5291 -4.47618,19.3162 -4.24969,19.527 0.22648,0.2107 4.81634,1.0599 10.19968,1.8871 18.74031,2.8796 32.31929,9.4792 38.56102,18.7413 6.07708,9.0178 7.66299,17.6173 7.50599,40.7009 -0.12447,18.3015 -0.626,23.1467 -3.52893,34.0931 -3.10183,11.6964 -9.78526,26.7976 -15.15389,34.2402 -2.01103,2.7879 -2.00147,3 0.13528,3 3.79356,0 25.35927,-7.626 34.32265,-12.137 10.9088,-5.4902 32.51726,-20.2335 44.65672,-30.4691 8.22259,-6.933 17.71326,-18.0102 17.71326,-20.6743 0,-0.4399 -3.2266,-4.6034 -7.17024,-9.2521 -13.66382,-16.1068 -23.94784,-37.0365 -28.06394,-57.1149 -3.14139,-15.3237 -4.79048,-54.3469 -3.36085,-79.5294 2.4551,-43.246 7.09221,-64.5444 27.46704,-126.1565 18.43382,-55.7427 23.25542,-67.6104 45.68575,-112.449 20.2729,-40.5258 25.51078,-52.3653 33.69898,-76.1717 13.89583,-40.4007 34.63763,-70.7535 61.40043,-89.851 13.6372,-9.7313 22.5704,-13.2756 35.1304,-13.9381 19.2496,-1.0153 33.6793,4.0945 47.3787,16.7777 l 8.0493,7.4522 3.5589,-2.3064 c 22.3909,-14.5112 56.2772,-15.8571 87.5975,-3.4793 30.8484,12.1914 48.4822,32.5262 57.2745,66.0476 4.99,19.025 5.8401,51.7674 1.9823,76.3548 -0.8431,5.3736 -1.2376,10.0654 -0.8767,10.4263 0.3609,0.3609 2.9716,-0.525 5.8015,-1.9687 17.1381,-8.7432 41.7061,-11.3621 58.9518,-6.2842 22.023,6.4846 41.897,26.2175 51.9873,51.6185 9.2827,23.3676 12.1788,48.9552 12.425,109.7766 0.1931,47.6951 -0.6473,56.5603 -7.6777,80.9858 -2.5153,8.7388 -4.5733,16.4408 -4.5733,17.1155 0,0.6747 2.0368,1.2267 4.5262,1.2267 12.6656,0 36.8097,11.1203 53.9915,24.8675 19.7678,15.8162 33.0976,34.1128 40.1662,55.1325 7.6851,22.8529 9.1518,40.0345 12.1068,141.8209 2.0637,71.0849 0.6096,96.6885 -7.355,129.5124 -2.24,9.2313 -3.6824,20.7172 -4.6884,37.3334 -0.7992,13.2 -2.6745,34.8 -4.1674,48 -5.1746,45.7517 -5.4107,93.3584 -0.601,121.1976 5.7813,33.4634 18.5401,61.8989 36.3888,81.0994 6.2028,6.6727 15.7047,14.3696 17.7392,14.3696 0.5721,0 -0.7178,-4.8169 -2.8665,-10.7043 -10.1978,-27.9428 -10.4523,-61.1804 -0.5831,-76.1643 6.4148,-9.7394 15.536,-12.4279 63.0094,-18.5722 l 23,-2.9768 v -3.4208 c 0,-6.074 8.0259,-58.7761 12.8168,-84.1616 2.5604,-13.5666 8.8043,-43.2666 13.8753,-66 8.5795,-38.4619 13.3079,-62.2663 13.3079,-66.9964 0,-1.2921 -1.7823,-0.3703 -5.1274,2.6517 -19.6352,17.7393 -52.025,31.6781 -73.6106,31.6781 -6.8598,0 -9.6741,-0.607 -12.2657,-2.6456 -6.2697,-4.9317 -5.8121,-13.6779 0.9473,-18.1068 1.9217,-1.2591 8.4595,-2.7907 15.0595,-3.528 9.6145,-1.074 14.0907,-2.4503 25.4793,-7.834 23.5817,-11.1476 38.3748,-23.636 45.0489,-38.0304 l 3.1582,-6.8115 -3.435,-11.8532 c -10.6455,-36.7357 -33.0099,-77.8721 -99.7314,-183.4439 -19.7822,-31.3008 -34.7633,-58.6381 -60.8728,-111.08 -16.7101,-33.5628 -33.1795,-64.1697 -48.7873,-90.6666 -33.9452,-57.628 -54.3075,-97.0073 -54.3075,-105.0273 0,-8.7132 12.6497,-14.1381 19.2028,-8.2352 1.585,1.4277 9.4472,15.7094 17.4716,31.737 8.0243,16.0277 23.762,44.5277 34.9727,63.3334 26.9836,45.2644 35.9747,61.8195 51.4224,94.6838 19.9606,42.4654 33.2086,66.1146 78.524,140.1749 15.0316,24.5667 31.7777,52.4245 37.2134,61.9063 5.4358,9.4817 14.0858,24.4601 19.2223,33.2852 23.9365,41.1261 33.2471,67.6945 35.0934,100.1419 1.3324,23.4152 -0.5862,36.3421 -16.0825,108.3617 -12.6894,58.9742 -20.5971,99.0038 -20.5947,104.2513 6e-4,1.1295 2.9244,-2.8604 6.4973,-8.8664 3.573,-6.006 11.344,-17.4863 17.2689,-25.5117 27.5371,-37.2998 50.3985,-75.3917 60.2307,-100.3569 19.7784,-50.2202 30.1815,-94.6608 36.5549,-156.1585 l 0.5127,-4.9471 -9.3179,8.0197 c -5.1249,4.4108 -16.1784,12.5888 -24.5634,18.1733 -13.2318,8.8125 -16.1848,10.2315 -22.3571,10.7433 -6.1339,0.5087 -7.5046,0.1681 -9.9694,-2.4775 -3.6457,-3.9132 -3.947,-13.208 -0.5243,-16.1717 1.2833,-1.1112 6.8333,-4.6059 12.3333,-7.7661 20.9429,-12.033 36.3465,-25.6364 45.2484,-39.9601 2.5066,-4.0333 5.7434,-8.6702 7.1929,-10.3041 2.4509,-2.7629 2.5793,-4.3027 1.8343,-22 -2.0557,-48.8372 -9.4774,-73.2748 -49.9166,-164.3626 -9.116,-20.5333 -20.4621,-46.5629 -25.2137,-57.8436 -21.3574,-50.7046 -49.9398,-100.3109 -90.9777,-157.897 -7.5055,-10.5319 -12.1676,-18.346 -12.1676,-20.3939 0,-6.8077 10.2632,-13.0257 16.6767,-10.1035 6.2816,2.8621 41.2439,51.6933 62.2223,86.9047 22.3208,37.4647 33.0002,59.8703 73.4021,154 40.3848,94.0901 43.9933,104.6765 48.6107,142.612 2.8651,23.5391 2.9179,78.8909 0.098,103.388 -1.055,9.1667 -1.8639,16.7538 -1.7975,16.8604 0.066,0.1065 4.5225,-4.9763 9.9027,-11.2951 5.3802,-6.3188 23.2266,-25.4988 39.6588,-42.6222 42.1505,-43.9236 52.7686,-57.4524 62.1253,-79.1555 8.277,-19.1986 11.89,-35.0308 12.7309,-55.7876 l 0.7293,-18 -6.7603,10 c -22.3729,33.0942 -48.2135,57.3333 -61.1213,57.3333 -7.7442,0 -12.6181,-9.5978 -8.6444,-17.0227 0.8565,-1.6003 5.5943,-6.138 10.5284,-10.0837 4.9341,-3.9457 13.1712,-11.618 18.3045,-17.0496 14.613,-15.462 34,-45.4084 34,-52.5185 0,-1.6312 1.2907,-4.6067 2.8682,-6.6122 2.8377,-3.6075 2.8431,-3.7264 0.5096,-11.1798 -1.2972,-4.1434 -5.5191,-14.7335 -9.382,-23.5335 -7.3938,-16.8439 -22.7185,-57.9886 -38.2392,-102.6666 -23.7367,-68.329 -41.5486,-136.7592 -48.4146,-186 -1.1759,-8.4334 -3.0089,-20.5194 -4.0734,-26.8578 -2.8402,-16.9134 -2.5797,-21.9523 1.3375,-25.8695 3.5018,-3.5019 9.6117,-4.3204 14.1439,-1.8948 4.4469,2.3799 7.8918,11.174 8.7216,22.265 0.4262,5.6964 2.2437,19.0571 4.0388,29.6904 10.6848,63.2918 22.5632,110.1026 42.3264,166.8013 17.689,50.7482 56.0906,153.9621 58.1369,156.2575 1.1285,1.2659 16.4938,-14.8503 19.2618,-20.203 3.4923,-6.7533 12.8363,-36.4571 17.4659,-55.5225 5.5255,-22.7549 8.2911,-41.3289 9.4302,-63.3333 1.8129,-35.0208 -2.6782,-50.5091 -32.0894,-110.6667 -11.2936,-23.1 -22.3002,-47.1 -24.459,-53.3333 -2.1588,-6.2333 -9.9822,-35.6333 -17.3853,-65.3333 -19.3002,-77.4289 -31.3307,-114.5828 -49.4478,-152.7108 -20.3523,-42.8319 -36.6012,-66.7861 -116.1907,-171.2892 -20.7552,-27.2522 -51.4843,-72.4909 -62.524,-92.0467 -35.3286,-62.5812 -58.3567,-127.0249 -88.6026,-247.95336 -27.035,-108.09059 -33.7864,-123.39599 -68.6951,-155.73278 -22.8468,-21.16353 -32.3422,-28.435 -76.071,-58.25446 -45.9089,-31.30605 -55.6864,-38.86715 -74.1462,-57.33831 -11.8386,-11.84588 -17.51,-18.95676 -28.2454,-35.41487 -31.7122,-48.61692 -48.7501,-72.08975 -101.4202,-139.72509 -56.2206,-72.19474 -78.7703,-102.86361 -96.759,-131.59721 C 1122.4105,345.9386 1111.482,329.40716 1095.3542,306 c -16.5738,-24.05436 -23.6717,-38.1925 -24.4288,-48.6587 -0.5217,-7.21303 -0.2694,-8.12542 3.1148,-11.26178 7.2337,-6.704 18.1068,-2.93694 19.9074,6.89708 1.2381,6.76217 7.87,18.43095 24.0734,42.35673 7.4495,11 19.1181,29 25.9302,40 22.9681,37.08837 44.2339,66.48937 94.3217,130.40445 49.9341,63.71887 66.5324,86.08534 89.742,120.92889 43.9454,65.97308 53.5696,76.32091 101.7517,109.40191 12.8422,8.81726 14.5774,9.65185 15.7418,7.57122 0.7198,-1.28612 13.7667,-18.98121 28.9933,-39.32243 15.2266,-20.34122 38.1936,-51.08404 51.038,-68.31737 12.8443,-17.23333 39.2243,-51.43333 58.6223,-76 67.9754,-86.08789 77.5479,-98.96639 91.2226,-122.72791 14.6265,-25.41533 37.1499,-71.02919 49.3484,-99.93876 5.7244,-13.56666 11.6059,-26.01666 13.07,-27.66666 3.0997,-3.49345 8.5858,-3.90167 14.1016,-1.04932 7.6664,3.96444 7.3003,8.9169 -2.3697,32.05561 -22.9283,54.8636 -51.1617,109.11975 -71.7475,137.87705 m -89.508,2201.10859 c 13.9698,-8.4574 19.3377,-28.2702 20.0638,-74.0547 l 0.3235,-20.3961 -4.6667,0.7804 c -2.5667,0.4293 -15.6447,2.2069 -29.0624,3.9503 -33.5021,4.3531 -34.3922,5.0662 -33.2543,26.6415 1.2595,23.8814 9.9936,49.4834 20.2597,59.3867 3.7926,3.6586 6.2674,4.8113 11.7634,5.479 3.8281,0.465 7.5603,0.9269 8.2936,1.0264 0.7333,0.1 3.5591,-1.1666 6.2794,-2.8135 z m -226.9461,-193.0608 c 23.5483,-3.7552 45.7947,-21.6785 64.684,-52.1138 10.2632,-16.5366 25.4625,-47.4394 29.9615,-60.9169 9.1659,-27.4584 12.8698,-60.3172 11.5239,-102.2338 -0.471,-14.6666 -1.4458,-47.0666 -2.1663,-72 -1.9139,-66.2334 -4.3534,-84.817 -13.7926,-105.0684 -9.6381,-20.678 -27.9227,-38.3264 -50.8871,-49.1167 -7.7913,-3.6608 -24.4983,-7.0759 -26.1391,-5.343 -0.4487,0.4738 -1.436,3.4158 -2.194,6.5377 -1.3367,5.5052 -1.272,5.7012 2.1491,6.5044 1.94,0.4555 7.5972,2.936 12.5715,5.5122 18.079,9.3631 35.023,32.7069 40.3863,55.6405 4.2662,18.2425 0.045,39.4393 -9.7553,48.9893 -8.1299,7.9221 -13.4729,9.5689 -30.3419,9.3521 -13.7491,-0.1768 -32.2256,-1.829 -41.3333,-3.6962 l -4,-0.82 -3.8655,13.7541 c -2.126,7.5647 -9.5244,30.254 -16.4409,50.4207 -6.9164,20.1667 -19.0515,55.8667 -26.9667,79.3333 -14.3043,42.4085 -20.3896,58.8581 -25.4246,68.7275 -2.623,5.1415 -2.6227,5.2039 0.07,19.1597 10.2419,53.0723 32.7744,81.0817 70.3118,87.4024 9.0679,1.5269 11.9374,1.5236 21.6488,-0.025 z m -175.2848,-59.1912 c 25.8656,-5.4784 32.0366,-9.4884 45.2543,-29.4066 15.0706,-22.7103 22.0883,-39.5367 45.3094,-108.6398 8.9996,-26.7814 20.9865,-61.8935 26.6376,-78.0269 11.2721,-32.1805 16.8219,-52.3981 28.171,-102.6255 4.1374,-18.3107 9.2379,-39.0663 11.3344,-46.1235 2.486,-8.3681 3.5577,-14.4117 3.0812,-17.3745 -0.5178,-3.2202 0.6809,-8.62 4.1167,-18.5431 17.4684,-50.4522 17.3813,-49.8974 17.3745,-110.6667 -0.01,-55.5778 -1.1547,-70.8702 -6.781,-90.2855 -3.8298,-13.2155 -6.4435,-18.6478 -13.4755,-28.0065 -10.9495,-14.5724 -23.0425,-20.8521 -39.9455,-20.7432 -23.6877,0.1526 -49.7606,14.8707 -67.0946,37.8747 -10.6036,14.072 -17.6238,28.2368 -28.66,57.8272 -18.1229,48.5912 -28.7477,83.2441 -45.3781,148 -11.8811,46.2629 -14.838,62.1424 -18.0002,96.6666 -3.5218,38.4504 -6.7694,60.6847 -13.2968,91.0335 -2.8873,13.4249 -7.6588,38.7843 -10.6032,56.3544 -2.9443,17.57 -6.8602,39.7455 -8.7019,49.2788 -1.8417,9.5333 -4.0654,24.2464 -4.9415,32.6956 -1.412,13.6163 -1.3291,16.4197 0.7296,24.6667 7.4195,29.722 29.3673,53.7935 52.8211,57.932 3.3,0.5823 6.1478,1.1293 6.3284,1.2155 0.1807,0.086 7.2547,-1.3101 15.7201,-3.1032 z m -46.4381,-95.5262 c -8.0919,-4.2706 -8.8002,-7.5524 -4.0837,-18.9221 3.0038,-7.241 4.6302,-9.625 6.5664,-9.625 3.6768,0 3.9334,4.7152 0.6594,12.1166 -3.6275,8.2006 -3.4339,8.7917 1.092,3.334 2.7001,-3.2558 4.4392,-4.2937 6.1164,-3.6501 2.3476,0.9009 2.3402,2.2469 -0.055,10.0447 -1.7153,5.583 2.2582,2.5565 4.6394,-3.5338 1.1969,-3.0612 2.8736,-6.2632 3.726,-7.1156 2.1678,-2.1678 5.7291,-0.4788 5.7291,2.7172 0,3.1022 -3.7029,11.7137 -6.4873,15.087 -2.6172,3.1708 -11.4599,2.9471 -17.9023,-0.4529 z m 17.7229,-31.2137 c -1.3254,-1.5971 -1.32,-2.4095 0.027,-4.0323 2.6771,-3.2257 0.5353,-3.8155 -5.3318,-1.468 -2.9786,1.1918 -6.5599,2.1669 -7.9585,2.1669 -3.251,0 -8.0698,-6.0788 -8.0698,-10.1798 0,-3.5567 4.2843,-8.4868 7.3752,-8.4868 2.8715,0 4.0207,3.8595 2.0762,6.9731 -2.3742,3.8016 -0.9453,4.3141 5.1869,1.8604 6.8207,-2.729 11.2529,-2.7518 13.9331,-0.072 2.912,2.9119 2.6179,9.3821 -0.5714,12.5714 -3.1906,3.1906 -4.4661,3.3182 -6.6667,0.6667 z m 2,-24.0069 c -2.9333,-0.9835 -7.2622,-1.8343 -9.6197,-1.8907 -6.8506,-0.1637 -9.4161,-8.9868 -5.0616,-17.4075 2.4293,-4.6976 6.3341,-6.1051 11.268,-4.0614 4.3066,1.7838 6.5098,5.498 7.0392,11.8669 0.3192,3.8399 1.0591,4.7206 5.0408,6 3.2779,1.0533 4.6667,2.2931 4.6667,4.1662 0,3.3504 -5.6272,3.9102 -13.3334,1.3265 z m -4.9072,-12.9931 c -0.2344,-1.65 -1.0261,-3 -1.7594,-3 -0.7334,0 -1.5251,1.35 -1.7594,3 -0.2932,2.0642 0.2556,3 1.7594,3 1.5037,0 2.0525,-0.9358 1.7594,-3 z M 1162,2209.0619 c -4.4,-1.5188 -8.7552,-2.9622 -9.6782,-3.2076 -3.8944,-1.0353 -4.887,-6.9394 -2.4607,-14.6366 2.3691,-7.5158 5.1168,-10.1065 7.8355,-7.3878 1.1001,1.1002 1.1349,2.95 0.1263,6.7287 -2.234,8.3696 1.6055,12.9393 4.4779,5.3295 2.1852,-5.7894 6.2858,-4.8742 6.5843,1.4695 0.3393,7.2094 0.3582,7.2658 1.9104,5.7135 0.8042,-0.8042 1.8542,-4.6742 2.3334,-8.6 0.7359,-6.0303 1.3292,-7.2029 3.824,-7.5577 4.0169,-0.5712 5.1395,4.3645 3.0108,13.238 -1.6556,6.9014 -5.1995,11.9244 -8.297,11.7603 -0.9167,-0.049 -5.2667,-1.331 -9.6667,-2.8498 z m -23.8933,-8.944 c -1.3644,-1.5076 -2.1296,-4.0947 -1.8733,-6.3333 0.3438,-3.0031 1.1041,-3.7846 3.6818,-3.7846 2.5631,0 3.4919,0.9387 4.4013,4.4482 0.7801,3.0105 0.647,5.0576 -0.4119,6.3334 -2.0685,2.4924 -3.0426,2.3809 -5.7979,-0.6637 z m 24.3472,-21.7128 c -4.1503,-1.4696 -7.8784,-3.6619 -8.2846,-4.8719 -0.4063,-1.2099 -2.0239,-3.7778 -3.5947,-5.7063 -5.1813,-6.3613 -0.5456,-11.8269 10.0312,-11.8269 2.4376,0 5.8272,1.1297 7.5324,2.5104 3.0416,2.463 3.2056,2.4593 8.6729,-0.1969 3.0649,-1.4891 6.5806,-2.3206 7.8126,-1.8478 4.0694,1.5616 1.4885,5.4757 -6.2866,9.5343 -4.2145,2.2 -7.6645,4.3832 -7.6666,4.8516 0,0.4684 1.9919,1.226 4.4312,1.6836 6.0815,1.1409 9.2498,3.6641 8.1615,6.5 -1.2101,3.1536 -10.957,2.8584 -20.8093,-0.6301 z m 0.2128,-13.0718 c 0,-0.7333 -1.35,-1.3241 -3,-1.3129 -2.426,0.017 -2.6173,0.2678 -1,1.3129 2.585,1.6706 4,1.6706 4,0 z m 4.9219,-30.1438 c -14.5352,-12.2102 -13.6309,-15.4535 5.3946,-19.3473 9.7462,-1.9947 15.6835,-0.6609 15.6835,3.5232 0,1.9733 -1.0422,2.7361 -4.1517,3.0389 -2.9071,0.283 -4.6058,1.401 -5.6666,3.7294 -2.1341,4.6837 -1.9052,6.4333 1.2103,9.2528 3.0485,2.7588 3.0129,7.7509 -0.059,8.2343 -1.1,0.1732 -6.6851,-3.6209 -12.4114,-8.4313 z m 3.0781,-9.8562 c 0,-0.7333 -0.2646,-1.3333 -0.588,-1.3333 -0.3234,0 -0.9588,0.6 -1.412,1.3333 -0.4533,0.7334 -0.1887,1.3334 0.5879,1.3334 0.7767,0 1.4121,-0.6 1.4121,-1.3334 z m 8.6666,-17.3767 c -2.9333,-0.6001 -7.5254,-1.4522 -10.2046,-1.8935 -2.6792,-0.4413 -5.227,-1.7294 -5.6619,-2.8626 -1.1743,-3.0603 1.5619,-7.2005 4.7588,-7.2005 3.8485,0 13.1077,-2.8698 13.1077,-4.0627 0,-0.5356 -2.25,-1.3726 -5,-1.86 -8.3362,-1.4774 -9.6666,-2.1485 -9.6666,-4.8757 0,-3.9364 3.2288,-4.4417 12.9902,-2.0329 16.1222,3.9786 19.594,9.6443 9.0098,14.7035 l -5.3334,2.5493 4.2677,1.1437 c 4.9041,1.3142 6.0752,2.6566 4.9273,5.6478 -0.8831,2.3013 -4.5665,2.5089 -13.195,0.7436 z m 2.9118,-32.555 c -6.2586,-2.2321 -9.5104,-5.0757 -11.6151,-10.1568 -1.3465,-3.2508 -1.2513,-4.4488 0.5756,-7.2369 2.3071,-3.5212 5.9909,-4.4964 6.3251,-1.6746 0.1086,0.9167 0.3198,2.5667 0.4693,3.6667 0.1495,1.1 0.3607,2.7346 0.4693,3.6324 0.1085,0.8979 2.0805,2.6063 4.3822,3.7965 4.9716,2.5709 10.4818,0.8692 10.4818,-3.2371 0,-3.8373 3.4896,-6.2752 6,-4.1918 4.5815,3.8022 0.8594,12.2747 -6.7981,15.4742 -2.4472,1.0225 -4.6188,1.8328 -4.8257,1.8006 -0.2069,-0.032 -2.6659,-0.8751 -5.4644,-1.8732 z m -1.7917,-27.326 c -10.3973,-4.8132 -11.8497,-7.2999 -9.2927,-15.9104 2.2228,-7.4847 5.8022,-14.8411 7.2069,-14.8114 0.5311,0.011 1.8486,0.5787 2.9277,1.2611 1.6998,1.075 1.5823,2.4085 -0.8792,9.9796 -3.0681,9.4367 -1.549,12.1689 1.8934,3.4055 1.4093,-3.5876 2.9154,-5.3333 4.6013,-5.3333 3.6931,0 4.3809,3.4385 1.9338,9.6683 -1.6979,4.3225 -1.8072,5.7428 -0.5054,6.5695 3.9515,2.5093 5.8362,1.045 7.5989,-5.9045 0.9765,-3.85 2.3855,-7.3945 3.1311,-7.8766 2.4653,-1.5943 4.9317,0.4405 4.872,4.0193 -0.096,5.7609 -3.3089,16.307 -5.3638,17.6074 -3.3953,2.1485 -9.7221,1.2149 -18.124,-2.6745 z M 1284,1898.2644 c -10.6577,-3.3018 -19.7535,-7.5918 -32.6667,-15.4071 -6.7108,-4.0615 -8.9955,-4.7714 -14.1779,-4.4051 -7.6692,0.5421 -10.9062,-2.41 -13.2204,-12.0566 -1.8586,-7.7472 -0.8132,-28.3085 2.2231,-43.7289 5.4878,-27.8702 29.3151,-59.671 53.7627,-71.7536 9.0411,-4.4684 10.9127,-4.9062 20.6767,-4.8366 8.3004,0.059 12.1381,0.7568 16.9173,3.0754 14.2218,6.8998 25.3968,20.8826 31.0883,38.8992 6.4562,20.4376 9.5924,68.0718 5.4092,82.1581 -5.5767,18.7787 -22.325,29.3062 -48.679,30.5978 -9.1964,0.4508 -13.2188,-0.029 -21.3333,-2.5426 z m 36.3794,-24.6666 c 11.858,-5.2454 13.4579,-12.8126 10.2042,-48.2645 -2.3956,-26.1025 -6.2962,-38.4773 -15.0607,-47.7804 -12.2394,-12.9917 -24.2994,-10.3544 -42.8566,9.372 -15.5147,16.4923 -24.6663,37.405 -24.6663,56.366 0,7.1188 0.044,7.1946 7.6667,13.2703 9.3012,7.4133 25.4709,16.0322 35.1813,18.7526 9.1321,2.5584 21.492,1.8402 29.5314,-1.716 z M 1090.9257,2274 c 1.9874,-10.2667 5.7428,-31.5667 8.3455,-47.3333 2.6026,-15.7667 5.0034,-29.8667 5.3351,-31.3334 0.5528,-2.4443 -0.087,-2.6673 -7.6683,-2.6745 -9.7954,-0.01 -18.3738,-3.5952 -34.8416,-14.5637 -18.6698,-12.4352 -30.0811,-25.1259 -30.0914,-33.4651 -0.014,-11.0562 14.1801,-16.1973 21.4877,-7.783 1.1876,1.3675 2.3876,3.1507 2.6666,3.9628 0.8159,2.3742 15.8191,15.1095 24.445,20.7497 4.3657,2.8546 11.2657,6.1415 15.3333,7.3042 4.0677,1.1626 8.3862,2.983 9.5967,4.0453 1.2105,1.0623 2.5381,1.3859 2.9502,0.7191 1.2731,-2.0599 7.3409,-33.5078 10.1047,-52.3707 1.4445,-9.8582 3.8775,-31.7241 5.4068,-48.5907 3.1249,-34.4644 4.8058,-43.8531 16.0141,-89.4458 14.996,-61.0001 36.6806,-130.8353 54.5204,-175.5822 9.382,-23.5327 20.2653,-41.4694 34.9729,-57.6387 4.6693,-5.1333 7.4412,-8.5099 6.1598,-7.5034 -2.8688,2.2532 -2.8815,2.7158 0.2933,-10.7247 9.7662,-41.345 7.9446,-84.3039 -4.6268,-109.1123 -7.3212,-14.4478 -25.3103,-27.6754 -44.3012,-32.5751 -45.9609,-11.8582 -65.4191,0.3036 -93.7278,58.5822 -12.8155,26.383 -16.4913,35.6605 -35.6587,90 -26.7571,75.8562 -35.6228,105.8189 -45.525,153.8571 -11.1084,53.8895 -14.14812,84.6689 -16.07866,162.8095 -1.41891,57.4318 -0.34964,122.0428 2.55162,154.1828 2.27964,25.2536 8.89914,39.4851 26.64454,57.2835 9.1918,9.2193 13.6532,12.5494 22.7655,16.9931 13.7387,6.6998 23.7916,9.5164 32.6562,9.1495 l 6.6562,-0.2755 z M 1176,1746.572 c -30.3991,-6.5206 -55.6121,-17.3877 -64.302,-27.7151 -8.193,-9.7369 -8.2689,-27.6391 -0.248,-58.51 7.2038,-27.7259 18.3107,-42.8497 38.9989,-53.1032 6.4841,-3.2136 9.1525,-3.743 18.8844,-3.7466 37.5086,-0.014 58.1866,24.8319 60.8223,73.0813 0.9579,17.5366 -1.1055,37.8483 -4.866,47.8991 -8.0508,21.5176 -22.2679,27.8906 -49.2896,22.0945 z m 23.9297,-25.1683 c 4.5713,-4.5713 5.9731,-12.8416 5.8879,-34.737 -0.09,-22.9991 -2.0009,-33.2974 -8.2895,-44.6608 -7.0444,-12.7292 -26.4786,-18.3367 -39.8713,-11.5043 -14.8134,7.5573 -24.9287,30.4645 -26.5786,60.1901 l -0.7785,14.025 11.8501,5.5499 c 26.2613,12.2991 51.7122,17.2047 57.7799,11.1371 z m -432.37005,445.9369 c 7.60536,-2.2586 9.47965,-4.0273 14.13651,-13.3406 8.7874,-17.5739 12.35474,-41.936 9.0284,-61.6568 -2.38121,-14.1174 -6.03539,-16.54 -29.65089,-19.658 l -6.25966,-0.8265 -0.88662,5.0707 c -0.48765,2.7888 -2.69949,13.4706 -4.9152,23.7373 -6.6865,30.9823 -5.40345,53.5901 3.84697,67.7852 3.10066,4.758 3.5009,4.9689 5.68319,2.9939 1.2912,-1.1685 5.34898,-3.0158 9.0173,-4.1052 z m 203.678,-90.3399 c 0.90492,-48.7922 0.81464,-52.4228 -1.33447,-53.6666 -17.82898,-10.3187 -51.17179,-40.8499 -56.395,-51.6396 -3.50449,-7.2393 -3.73712,-15.8074 -0.50818,-18.7173 6.47797,-5.8379 15.57423,-3.8265 20.24022,4.4755 1.63713,2.9129 6.37782,8.9727 10.53486,13.4663 8.50087,9.1891 28.64276,25.937 29.11406,24.2083 0.16903,-0.62 1.25249,-11.0273 2.40769,-23.1273 4.34239,-45.4839 13.77488,-95.5411 26.75757,-142 7.3222,-26.2023 13.9367,-46.2447 32.5502,-98.6281 10.2396,-28.8171 10.7405,-30.7292 8.4726,-32.3373 -17.3859,-12.3271 -28.3065,-25.5499 -32.593,-39.464 -5.2567,-17.0631 -0.9653,-29.0904 16.1601,-45.2905 16.9951,-16.0768 34.6069,-24.5782 53.7213,-25.9316 10.0017,-0.7082 10.2868,-0.821 8.1217,-3.2134 -1.2341,-1.3636 -5.4668,-4.0562 -9.406,-5.9835 -6.2121,-3.0393 -8.3642,-3.4181 -16.2231,-2.8558 -13.27,0.9494 -25.6069,7.7791 -40.3654,22.3462 -16.7285,16.5116 -21.3874,24.6911 -39.53807,69.4158 -18.48954,45.5595 -28.30171,67.5515 -38.04207,85.2636 -14.9197,27.1303 -24.13041,50.5967 -43.70377,111.3453 -18.98065,58.909 -21.10119,70.5851 -22.15693,122 -1.02383,49.8608 1.62588,65.9756 14.68882,89.3333 6.70808,11.9947 25.88771,31.8147 37.22973,38.4728 10.54524,6.1904 30.67507,13.9151 38.49635,14.7728 0.44011,0.048 1.23696,-23.4619 1.77079,-52.2449 z m 422.20015,30.9795 c 3.9244,-0.7443 7.6267,-1.8447 8.2274,-2.4454 2.1534,-2.1534 3.3643,-15.5938 2.1666,-24.0505 -1.4228,-10.0469 -7.1075,-22.6187 -13.712,-30.3238 -5.5472,-6.4718 -15.9383,-13.4575 -21.7454,-14.619 -4.0038,-0.8007 -4.154,-0.6464 -6.1498,6.3189 -1.8418,6.4274 -11.072,48.5792 -12.5564,57.3412 -0.697,4.1143 -0.2533,4.3117 14.3318,6.3752 5.5,0.7781 11.5,1.635 13.3333,1.9041 6.3349,0.9299 8.9976,0.8471 16.1045,-0.5007 z M 789.11188,1754.6693 C 809.32816,1745.1055 824,1720.6309 824,1696.4713 c 0,-11.1045 -2.57951,-19.9247 -8.22858,-28.1362 -5.63335,-8.1887 -10.19504,-10.1028 -23.9367,-10.0438 -13.12538,0.056 -23.26121,2.8404 -27.75456,7.6234 -7.27025,7.7388 -7.29439,27.0389 -0.0802,64.0853 2.93333,15.0632 5.33333,27.6754 5.33333,28.0272 0,0.3517 2.55,0.639 5.66667,0.6384 3.52514,-6e-4 8.85825,-1.5109 14.11188,-3.9963 z m 63.12051,-31.336 c 27.85731,-41.6291 42.73229,-84.3786 42.91468,-123.3333 0.14985,-32.0056 -7.25114,-49.3808 -38.70962,-90.8779 -7.59316,-10.0162 -18.74788,-22.8443 -24.78826,-28.5068 -6.04039,-5.6626 -11.71126,-11.5675 -12.60194,-13.1221 -4.36936,-7.6263 0.43232,-16.8651 8.71619,-16.7706 2.69677,0.031 6.94256,1.1423 9.43509,2.4702 l 4.53186,2.4143 7.53932,-8.8035 c 28.92763,-33.7785 66.20111,-87.9998 76.87867,-111.8347 5.65089,-12.6141 6.06489,-13.899 4.09081,-12.6963 -6.7269,4.0985 -35.31485,25.433 -45.96952,34.306 -19.94482,16.6097 -96.19797,92.7754 -110.70698,110.58 -7.09281,8.7038 -16.38635,20.1038 -20.65231,25.3333 -18.02711,22.0987 -31.31919,46.4408 -34.83007,63.7852 -3.41721,16.8817 -2.44929,32.9448 3.49274,57.9637 l 2.9072,12.2408 9.9147,-9.2593 c 10.5091,-9.8143 29.14407,-22.892 38.65296,-27.126 5.30825,-2.3636 6.02786,-2.3951 10.12062,-0.4434 6.73241,3.2105 9.25052,11.8803 5.17659,17.823 -0.55648,0.8118 -6.71179,4.989 -13.67845,9.2827 -16.04504,9.8889 -34.63759,27.5243 -39.50339,37.4696 -3.17581,6.4911 -3.39607,7.8842 -2.2376,14.1525 1.34097,7.2557 1.93225,6.9044 4.35995,-2.5905 1.86109,-7.2789 8.89947,-17.6165 14.59017,-21.4294 2.49836,-1.674 9.39836,-4.6279 15.33333,-6.5642 14.87971,-4.8547 36.2904,-5.127 47.80626,-0.608 14.96841,5.8738 27.82503,23.6359 31.72584,43.831 3.70455,19.179 -0.534,43.6872 -10.39479,60.1049 l -4.52996,7.5422 L 836.671,1744 c 2.66999,-2.5667 9.67262,-11.8667 15.56139,-20.6667 z M 1058.6483,1665 c 5.4004,-13.2969 20.5623,-44.1464 24.2255,-49.2909 l 2.6411,-3.7091 h -3.3635 c -8.883,0 -29.1557,9.9025 -39.1696,19.1331 -10.7476,9.9068 -12.4899,18.5309 -5.8568,28.9903 3.4352,5.4168 14.1116,15.8766 16.2054,15.8766 0.4677,0 2.8608,-4.95 5.3179,-11 z"
       id="path305"
       inkscape:label="hand_outline" />
  </g>
</svg>
